<svg width="25" height="24" viewBox="0 0 25 24" fill="none" xmlns="http://www.w3.org/2000/svg">
<path d="M2.43701 12C2.43701 8.229 2.43701 6.343 3.60901 5.172C4.78101 4.001 6.66601 4 10.437 4H14.437C18.208 4 20.094 4 21.265 5.172C22.436 6.344 22.437 8.229 22.437 12C22.437 15.771 22.437 17.657 21.265 18.828C20.093 19.999 18.208 20 14.437 20H10.437C6.66601 20 4.78001 20 3.60901 18.828C2.43801 17.656 2.43701 15.771 2.43701 12Z" stroke="#66BAD0" stroke-width="1.5"/>
<path d="M12.437 10V14M10.705 11L14.169 13M14.169 11L10.705 13M7.17001 10V14M5.43701 11L8.90101 13M8.90101 11L5.43701 13M17.705 10V14M15.973 11L19.437 13M19.437 11L15.972 13" stroke="#66BAD0" stroke-width="1.5" stroke-linecap="round"/>
</svg>
