<svg width="23" height="22" viewBox="0 0 23 22" fill="none" xmlns="http://www.w3.org/2000/svg">
<path d="M1.43701 11C1.43701 16.523 5.91401 21 11.437 21C16.96 21 21.437 16.523 21.437 11C21.437 5.477 16.96 1 11.437 1C5.91401 1 1.43701 5.477 1.43701 11Z" stroke="#66BAD0" stroke-width="1.5" stroke-linecap="round" stroke-linejoin="round"/>
<path d="M12.4369 1.05005C12.4369 1.05005 15.4369 5.00005 15.4369 11C15.4369 17 12.4369 20.9501 12.4369 20.9501M10.4369 20.9501C10.4369 20.9501 7.43689 17 7.43689 11C7.43689 5.00005 10.4369 1.05005 10.4369 1.05005M2.06689 14.5H20.8069M2.06689 7.50005H20.8069" stroke="#66BAD0" stroke-width="1.5" stroke-linecap="round" stroke-linejoin="round"/>
</svg>
