<svg width="28" height="28" viewBox="0 0 28 28" fill="none" xmlns="http://www.w3.org/2000/svg">
<path d="M14.3266 22.4339C15.148 22.3779 15.9584 22.2472 16.758 22.0419C17.7419 22.3368 18.78 22.4038 19.7936 22.2379C19.8339 22.2327 19.8744 22.2296 19.915 22.2286C20.2766 22.2286 20.7515 22.4362 21.4433 22.8737V22.1551C21.4435 22.0298 21.4772 21.907 21.5411 21.7992C21.6049 21.6915 21.6964 21.6029 21.8061 21.5426C22.1021 21.3775 22.3822 21.1853 22.6426 20.9686C23.6506 20.1251 24.22 19.0016 24.22 17.8116C24.22 17.4172 24.157 17.0264 24.0345 16.6531C24.3378 16.0931 24.5851 15.5027 24.766 14.8914C25.3493 15.7547 25.6643 16.7697 25.6666 17.8116C25.6666 19.4286 24.9036 20.9382 23.5841 22.0407C23.3634 22.2244 23.1316 22.3942 22.89 22.5494V24.2317C22.89 24.8104 22.2133 25.1417 21.7361 24.7987C21.2847 24.4653 20.8175 24.1539 20.3361 23.8654C20.1977 23.784 20.0539 23.7123 19.9056 23.6507C19.509 23.7091 19.1053 23.7386 18.6946 23.7394C17.0473 23.7394 15.5248 23.2517 14.3266 22.4339ZM5.61631 19.0692C3.53498 17.3297 2.33331 14.9544 2.33331 12.4134C2.33331 7.21705 7.30098 3.06372 13.3665 3.06372C19.432 3.06372 24.4008 7.21705 24.4008 12.4122C24.4008 17.6097 19.432 21.7619 13.3665 21.7619C12.6844 21.7619 12.0124 21.7102 11.3505 21.6067C11.0646 21.6732 9.92248 22.3429 8.27631 23.5294C7.68131 23.9599 6.83431 23.5446 6.83431 22.8201V19.9501C6.40783 19.6863 6.00079 19.3923 5.61631 19.0704M11.3913 19.8381C11.4403 19.8381 11.4909 19.8419 11.543 19.8497C12.1457 19.9497 12.7556 19.9996 13.3665 19.9991C18.4905 19.9991 22.5913 16.5702 22.5913 12.4134C22.5913 8.25655 18.4905 4.82889 13.3665 4.82889C8.24481 4.82889 4.14165 8.25772 4.14165 12.4134C4.14165 14.4236 5.09948 16.3159 6.79348 17.7322C7.22126 18.0884 7.68637 18.4077 8.18881 18.6901C8.46998 18.8464 8.64381 19.1392 8.64381 19.4542V21.1097C9.94581 20.2464 10.8021 19.8381 11.3901 19.8381" fill="white"/>
<path d="M8.89583 14.0002C9.28261 14.0002 9.65354 13.8465 9.92703 13.573C10.2005 13.2995 10.3542 12.9286 10.3542 12.5418C10.3542 12.1551 10.2005 11.7841 9.92703 11.5106C9.65354 11.2371 9.28261 11.0835 8.89583 11.0835C8.50906 11.0835 8.13813 11.2371 7.86464 11.5106C7.59115 11.7841 7.4375 12.1551 7.4375 12.5418C7.4375 12.9286 7.59115 13.2995 7.86464 13.573C8.13813 13.8465 8.50906 14.0002 8.89583 14.0002Z" fill="white"/>
<path d="M13.6348 14.0002C14.0216 14.0002 14.3925 13.8465 14.666 13.573C14.9395 13.2995 15.0931 12.9286 15.0931 12.5418C15.0931 12.1551 14.9395 11.7841 14.666 11.5106C14.3925 11.2371 14.0216 11.0835 13.6348 11.0835C13.248 11.0835 12.8771 11.2371 12.6036 11.5106C12.3301 11.7841 12.1765 12.1551 12.1765 12.5418C12.1765 12.9286 12.3301 13.2995 12.6036 13.573C12.8771 13.8465 13.248 14.0002 13.6348 14.0002Z" fill="white"/>
<path d="M18.375 14.0011C18.7617 14.0011 19.1327 13.8475 19.4062 13.574C19.6796 13.3005 19.8333 12.9296 19.8333 12.5428C19.8333 12.156 19.6796 11.7851 19.4062 11.5116C19.1327 11.2381 18.7617 11.0845 18.375 11.0845C17.9882 11.0845 17.6173 11.2381 17.3438 11.5116C17.0703 11.7851 16.9166 12.156 16.9166 12.5428C16.9166 12.9296 17.0703 13.3005 17.3438 13.574C17.6173 13.8475 17.9882 14.0011 18.375 14.0011Z" fill="white"/>
</svg>
