<svg width="16" height="16" viewBox="0 0 16 16" fill="none" xmlns="http://www.w3.org/2000/svg">
<path d="M14 8C14 6.81331 13.6481 5.65327 12.9888 4.66658C12.3295 3.67988 11.3925 2.91085 10.2961 2.45672C9.19975 2.0026 7.99335 1.88378 6.82946 2.11529C5.66558 2.3468 4.59648 2.91824 3.75736 3.75736C2.91825 4.59647 2.3468 5.66557 2.11529 6.82946C1.88378 7.99334 2.0026 9.19974 2.45673 10.2961C2.91085 11.3925 3.67989 12.3295 4.66658 12.9888C5.65328 13.6481 6.81331 14 8 14C8.992 14 9.92667 13.76 10.7513 13.3333L14 14L13.3333 10.7513C13.7593 9.92733 14 8.99133 14 8Z" stroke="#A0A5AB" stroke-linecap="round" stroke-linejoin="round"/>
</svg>
