<svg width="25" height="18" viewBox="0 0 25 18" fill="none" xmlns="http://www.w3.org/2000/svg">
<path fill-rule="evenodd" clip-rule="evenodd" d="M22.862 2.526L13.3925 10.368C13.1234 10.5909 12.785 10.7129 12.4355 10.7129C12.0861 10.7129 11.7476 10.5909 11.4785 10.368L2.01351 2.526C1.96273 2.67887 1.9369 2.83892 1.93701 3V15C1.93701 15.3978 2.09505 15.7794 2.37635 16.0607C2.65766 16.342 3.03919 16.5 3.43701 16.5H21.437C21.8348 16.5 22.2164 16.342 22.4977 16.0607C22.779 15.7794 22.937 15.3978 22.937 15V3C22.9376 2.839 22.9123 2.67895 22.862 2.526ZM3.43701 0H21.437C22.2327 0 22.9957 0.31607 23.5583 0.87868C24.1209 1.44129 24.437 2.20435 24.437 3V15C24.437 15.7956 24.1209 16.5587 23.5583 17.1213C22.9957 17.6839 22.2327 18 21.437 18H3.43701C2.64136 18 1.8783 17.6839 1.31569 17.1213C0.753082 16.5587 0.437012 15.7956 0.437012 15V3C0.437012 2.20435 0.753082 1.44129 1.31569 0.87868C1.8783 0.31607 2.64136 0 3.43701 0ZM3.12201 1.5L11.486 8.4045C11.7539 8.62576 12.0903 8.74716 12.4377 8.74798C12.7851 8.7488 13.1221 8.62899 13.391 8.409L21.839 1.5H3.12201Z" fill="#66BAD0"/>
</svg>
