<svg width="23" height="23" viewBox="0 0 23 23" fill="none" xmlns="http://www.w3.org/2000/svg">
<path d="M13.5834 5.34512C13.125 5.80345 12.2056 5.72278 10.8334 4.58978M10.8334 4.58978C11.0362 4.42356 11.2468 4.23228 11.4649 4.01595C13.5788 1.92228 16.4571 2.33203 17.8055 4.01595C18.3794 4.73278 19.5041 6.10687 18.9193 9.47012M10.8334 4.58978C10.6305 4.42356 10.4199 4.23228 10.2018 4.01595C8.08794 1.92228 5.2096 2.33203 3.86119 4.01595C2.92985 5.18012 0.546522 8.07678 6.38019 18.3985C6.62219 18.8256 7.10344 19.0951 7.62135 19.0951C8.44819 19.0951 9.09444 18.4351 9.12102 17.6651C9.16319 16.4707 9.39419 15.1397 10.0386 14.5118M15.4167 16.3451L16.0437 16.9721C16.1784 17.1069 16.2463 17.1747 16.3279 17.1701C16.4104 17.1655 16.4699 17.0913 16.5891 16.9419L18.1667 14.9701M12.6667 14.928V15.2818C12.6667 16.3836 12.6667 16.9345 12.8024 17.4387C12.9719 18.064 13.2909 18.6388 13.7319 19.1135C14.0894 19.5003 14.5624 19.801 15.5074 20.4032C15.93 20.6727 16.1418 20.8075 16.3673 20.8707C16.645 20.9477 16.9393 20.9477 17.217 20.8707C17.4416 20.8075 17.6534 20.6727 18.0759 20.4032C19.021 19.801 19.494 19.5003 19.8515 19.1135C20.2925 18.6388 20.6115 18.064 20.781 17.4387C20.9167 16.9345 20.9167 16.3845 20.9167 15.2818V14.928C20.9167 14.2423 20.9167 13.8995 20.7865 13.6098C20.7048 13.431 20.5901 13.2693 20.4483 13.1331C20.2164 12.9131 19.8873 12.7921 19.2291 12.551L17.8779 12.056C17.3408 11.8599 17.0722 11.7618 16.7917 11.7618C16.5112 11.7618 16.2426 11.8599 15.7054 12.057L14.3543 12.552C13.6961 12.7921 13.367 12.9122 13.1351 13.1331C12.993 13.2692 12.8779 13.4309 12.7959 13.6098C12.6667 13.8995 12.6667 14.2423 12.6667 14.928Z" stroke="#A0A5AB" stroke-width="1.5" stroke-linecap="round" stroke-linejoin="round"/>
</svg>
