<svg width="18" height="19" viewBox="0 0 18 19" fill="none" xmlns="http://www.w3.org/2000/svg">
<path fill-rule="evenodd" clip-rule="evenodd" d="M13.917 4.90508C13.917 6.63558 13.487 8.89258 12.8255 8.55008C12.555 9.43344 11.9871 10.1959 11.2183 10.7081C10.4494 11.2203 9.52699 11.4506 8.60761 11.3599C7.68823 11.2692 6.82857 10.8631 6.17461 10.2106C5.52065 9.55804 5.1127 8.69926 5.02002 7.78008C4.36352 6.63158 3.50252 4.33008 5.71602 2.53608C5.75602 2.52308 5.78002 2.41508 5.81602 2.25608C5.95302 1.65458 6.25652 0.317582 8.17102 0.573082C9.64752 0.769582 13.917 1.53158 13.917 4.90508ZM12.014 5.99658C12.014 5.99658 11.788 6.65758 12 7.39408C11.9973 8.17937 11.6867 8.93228 11.135 9.49114C10.5833 10.05 9.83449 10.3703 9.0493 10.3832C8.26411 10.3961 7.50517 10.1006 6.93542 9.56011C6.36568 9.01966 6.03056 8.27736 6.00202 7.49258C6.07452 7.21758 6.07452 6.75208 6.07402 6.23458C6.07352 5.30108 6.07252 4.19958 6.50002 3.75058C9.49452 5.74508 12.014 5.99658 12.014 5.99658Z" fill="#66BAD0"/>
<path d="M3.5 16.0001C3.5 15.4591 3.7865 14.9851 4.2165 14.7211C4.20016 14.6589 4.18483 14.5963 4.1705 14.5336C4.09492 14.192 4.03569 13.8469 3.993 13.4996C3.95036 13.1668 3.92449 12.832 3.9155 12.4966C1.805 13.3251 0 14.7691 0 16.2851V19.0001H18V16.2851C18 14.8331 16.345 13.4476 14.351 12.6051V12.6191C14.36 12.9241 14.343 13.2741 14.31 13.6106C14.28 13.9226 14.2355 14.2336 14.182 14.5001H14.5C14.5928 14.5002 14.6838 14.526 14.7628 14.5749C14.8417 14.6237 14.9055 14.6936 14.947 14.7766L15.447 15.7766C15.482 15.8461 15.5 15.9226 15.5 16.0001V17.0001C15.5 17.1327 15.4473 17.2599 15.3536 17.3537C15.2598 17.4474 15.1326 17.5001 15 17.5001H14V16.5001H14.5V16.1181L14.191 15.5001H12.809L12.5 16.1181V16.5001H13V17.5001H12C11.8674 17.5001 11.7402 17.4474 11.6464 17.3537C11.5527 17.2599 11.5 17.1327 11.5 17.0001V16.0001C11.5 15.9226 11.518 15.8461 11.553 15.7766L12.053 14.7766C12.0945 14.6936 12.1583 14.6237 12.2372 14.5749C12.3162 14.526 12.4072 14.5002 12.5 14.5001H13.1575C13.1685 14.4571 13.1795 14.4094 13.1905 14.3571C13.2405 14.1216 13.285 13.8231 13.315 13.5146C13.345 13.2056 13.359 12.8991 13.3515 12.6471C13.3499 12.5427 13.3417 12.4385 13.327 12.3351C13.316 12.2641 13.305 12.2316 13.303 12.2246C13.3023 12.2229 13.3023 12.2226 13.303 12.2236L13.3045 12.2231C13.0392 12.1408 12.7708 12.0686 12.5 12.0066C12.2485 11.9491 11.9885 12.2951 11.875 12.5116H6L5.957 12.4276C5.851 12.2166 5.7205 11.9561 5.5 12.0066C5.30733 12.0503 5.11483 12.0998 4.9225 12.1551C4.91653 12.2428 4.91386 12.3307 4.9145 12.4186C4.9165 12.6951 4.943 13.0336 4.9855 13.3756C5.028 13.7166 5.0855 14.0486 5.1455 14.3106C5.16283 14.3863 5.1795 14.4536 5.1955 14.5126C5.48136 14.5502 5.75033 14.6693 5.97021 14.8558C6.1901 15.0423 6.35158 15.2882 6.43533 15.5641C6.51907 15.84 6.52154 16.1342 6.44242 16.4114C6.36331 16.6887 6.20597 16.9372 5.98924 17.1274C5.77251 17.3175 5.50557 17.4412 5.22039 17.4835C4.9352 17.5259 4.64385 17.4852 4.38121 17.3662C4.11857 17.2473 3.89577 17.0552 3.73949 16.8129C3.5832 16.5706 3.50006 16.2884 3.5 16.0001Z" fill="#66BAD0"/>
<path d="M5.5 16.0002C5.5 16.2872 5.269 16.5077 5 16.5077C4.731 16.5077 4.5 16.2877 4.5 16.0002C4.5 15.7132 4.731 15.4927 5 15.4927C5.269 15.4927 5.5 15.7127 5.5 16.0002Z" fill="#66BAD0"/>
</svg>
