<svg width="20" height="20" viewBox="0 0 20 20" fill="none" xmlns="http://www.w3.org/2000/svg">
<path d="M10 20C5.18966 20 0 16.8694 0 9.99999C0 3.13059 5.18966 0 10 0C12.6724 0 15.1379 0.912343 16.9655 2.57603C18.9483 4.40071 20 6.97674 20 9.99999C20 13.0232 18.9483 15.5814 16.9655 17.4061C15.1379 19.0698 12.6552 20 10 20Z" fill="url(#paint0_radial_757_672)"/>
<path d="M18.2569 4.05542C19.1759 5.59388 19.6552 7.42572 19.6552 9.46329C19.6552 12.4865 18.6034 15.0447 16.6207 16.8694C14.7931 18.533 12.3103 19.4633 9.65516 19.4633C6.54137 19.4633 3.26896 18.1484 1.34827 15.3595C3.20344 18.5187 6.69137 20 9.99999 20C12.6552 20 15.1379 19.0697 16.9655 17.406C18.9483 15.5814 20 13.0232 20 9.99996C20 7.72089 19.4017 5.69585 18.2569 4.05542Z" fill="#EB8F00"/>
<path opacity="0.8" d="M3.7327 14.7281C5.39907 14.7281 6.74994 13.3265 6.74994 11.5975C6.74994 9.86853 5.39907 8.46692 3.7327 8.46692C2.06632 8.46692 0.715454 9.86853 0.715454 11.5975C0.715454 13.3265 2.06632 14.7281 3.7327 14.7281Z" fill="url(#paint1_radial_757_672)"/>
<path opacity="0.8" d="M16.4052 14.7281C18.0716 14.7281 19.4225 13.3265 19.4225 11.5975C19.4225 9.86853 18.0716 8.46692 16.4052 8.46692C14.7389 8.46692 13.388 9.86853 13.388 11.5975C13.388 13.3265 14.7389 14.7281 16.4052 14.7281Z" fill="url(#paint2_radial_757_672)"/>
<path d="M7.47583 8.92494C7.47583 8.92494 7.46721 8.91242 7.44824 8.88916C7.431 8.8659 7.40686 8.8337 7.37583 8.79256C7.34997 8.76394 7.31893 8.72995 7.28273 8.69059C7.24652 8.64766 7.20169 8.60294 7.15686 8.55642C7.11031 8.5117 7.06204 8.46519 7.01204 8.42762C6.96376 8.38648 6.91031 8.35607 6.86721 8.33102C6.82238 8.3024 6.781 8.29524 6.75514 8.2863C6.74135 8.28093 6.72928 8.28093 6.71893 8.27914C6.71376 8.28093 6.70859 8.27735 6.70341 8.27914L6.69652 8.28093H6.69307H6.69135C6.71204 8.28093 6.64479 8.28272 6.7379 8.27914L6.64307 8.28272C6.61893 8.28272 6.63445 8.28451 6.63617 8.28451C6.64135 8.28451 6.64479 8.28451 6.64824 8.28272C6.66204 8.27735 6.64824 8.28272 6.64479 8.28272C6.63962 8.28272 6.63273 8.28451 6.62583 8.28809C6.59824 8.29703 6.55686 8.30419 6.51376 8.33281C6.47066 8.35786 6.41721 8.38827 6.36893 8.42941C6.32066 8.46877 6.27066 8.51349 6.2241 8.55821C6.13445 8.64945 6.05514 8.74068 5.99997 8.80687C5.94307 8.87485 5.91204 8.91421 5.91204 8.91421L5.87238 8.96251C5.63617 9.24873 5.20169 9.29703 4.90342 9.07163C4.69997 8.91778 4.61204 8.67807 4.64997 8.44909C4.64997 8.44909 4.66204 8.37574 4.69652 8.24873C4.73273 8.12172 4.79307 7.94104 4.91204 7.72816C5.031 7.51707 5.20342 7.26841 5.49479 7.04122C5.6379 6.93031 5.81204 6.81939 6.01893 6.74426C6.06893 6.72458 6.12238 6.70669 6.17755 6.69238C6.23445 6.67807 6.27928 6.66197 6.35686 6.65124L6.46376 6.63514C6.49652 6.63156 6.54479 6.62619 6.55169 6.62619L6.64652 6.61904L6.69997 6.61725H6.70514H6.71548L6.7379 6.61904H6.77928L6.86721 6.6244C6.92583 6.62977 6.98273 6.6405 7.03962 6.64945C7.15169 6.67092 7.26376 6.70133 7.36548 6.74068C7.57238 6.81582 7.74652 6.92494 7.88962 7.03764C8.181 7.26483 8.35342 7.51349 8.47238 7.72458C8.53273 7.83013 8.57755 7.93031 8.61031 8.01796C8.64652 8.10204 8.67238 8.19149 8.69307 8.25768C8.71204 8.32208 8.71204 8.35607 8.72066 8.38648C8.72583 8.4151 8.72755 8.4312 8.72755 8.4312C8.79135 8.79256 8.53445 9.13424 8.15686 9.19327C7.88617 9.238 7.62583 9.1253 7.47583 8.92494Z" fill="#422B0D"/>
<path d="M14.2862 8.92494C14.2862 8.92494 14.2776 8.91242 14.2586 8.88916C14.2414 8.8659 14.2172 8.8337 14.1862 8.79256C14.1603 8.76394 14.1293 8.72995 14.0931 8.69059C14.0569 8.64766 14.0121 8.60294 13.9672 8.55642C13.9207 8.5117 13.8724 8.46519 13.8224 8.42762C13.7741 8.38648 13.7207 8.35607 13.6776 8.33102C13.6328 8.3024 13.5914 8.29524 13.5655 8.2863C13.5517 8.28093 13.5397 8.28093 13.5293 8.27914C13.5241 8.28093 13.519 8.27735 13.5138 8.27914L13.5069 8.28093H13.5034H13.5017H13.5C13.5207 8.28093 13.4534 8.28272 13.5466 8.27914L13.4517 8.28272C13.4276 8.28272 13.4431 8.28451 13.4448 8.28451C13.45 8.28451 13.4534 8.28451 13.4569 8.28272C13.4707 8.27735 13.4569 8.28272 13.4534 8.28272C13.4483 8.28272 13.4414 8.28451 13.4345 8.28809C13.4069 8.29703 13.3655 8.30419 13.3224 8.33281C13.2793 8.35786 13.2259 8.38827 13.1776 8.42941C13.1293 8.46877 13.0793 8.51349 13.0328 8.55821C12.9431 8.64945 12.8638 8.74068 12.8086 8.80687C12.7517 8.87485 12.7207 8.91421 12.7207 8.91421L12.681 8.96251C12.4448 9.24873 12.0103 9.29703 11.7121 9.07163C11.5086 8.91778 11.4207 8.67807 11.4586 8.44909C11.4586 8.44909 11.4707 8.37574 11.5052 8.24873C11.5414 8.12172 11.6017 7.94104 11.7207 7.72816C11.8397 7.51707 12.0121 7.26841 12.3034 7.04122C12.4466 6.93031 12.6207 6.81939 12.8276 6.74426C12.8776 6.72458 12.931 6.70669 12.9862 6.69238C13.0431 6.67807 13.0879 6.66197 13.1655 6.65124L13.2724 6.63514C13.3052 6.63156 13.3534 6.62619 13.3603 6.62619L13.4552 6.61904L13.5086 6.61725H13.5138H13.5241L13.5466 6.61904H13.5879L13.6759 6.6244C13.7345 6.62977 13.7914 6.6405 13.8483 6.64945C13.9603 6.67092 14.0724 6.70133 14.1741 6.74068C14.381 6.81582 14.5552 6.92494 14.6983 7.03764C14.9897 7.26483 15.1621 7.51349 15.281 7.72458C15.3414 7.83013 15.3862 7.93031 15.419 8.01796C15.4552 8.10204 15.481 8.19149 15.5017 8.25768C15.5207 8.32208 15.5207 8.35607 15.5293 8.38648C15.5345 8.4151 15.5362 8.4312 15.5362 8.4312C15.6 8.79256 15.3431 9.13424 14.9655 9.19327C14.6948 9.238 14.4345 9.1253 14.2862 8.92494Z" fill="#422B0D"/>
<path d="M10.0724 15.5616C7.90516 15.5616 6.19137 14.4972 5.24654 13.3577C5.15172 13.2432 5.1293 13.0894 5.18965 12.9552C5.24999 12.8175 5.38103 12.728 5.52241 12.728C5.5862 12.728 5.65172 12.7459 5.70861 12.7799C6.68275 13.3631 8.31896 14.084 10.0672 14.084H10.0948C11.8448 14.084 13.4793 13.3613 14.4534 12.7799C14.5121 12.7459 14.5759 12.7262 14.6396 12.728C14.781 12.728 14.9121 12.8175 14.9724 12.9552C15.031 13.0894 15.0103 13.245 14.9155 13.3577C13.9707 14.4955 12.2552 15.5616 10.0896 15.5616" fill="#422B0D"/>
<defs>
<radialGradient id="paint0_radial_757_672" cx="0" cy="0" r="1" gradientUnits="userSpaceOnUse" gradientTransform="translate(10 9.99997) scale(9.82064 10.1896)">
<stop offset="0.5" stop-color="#FDE030"/>
<stop offset="0.9188" stop-color="#F7C02B"/>
<stop offset="1" stop-color="#F4A223"/>
</radialGradient>
<radialGradient id="paint1_radial_757_672" cx="0" cy="0" r="1" gradientUnits="userSpaceOnUse" gradientTransform="translate(3.73279 11.5973) scale(3.28242 3.23528)">
<stop stop-color="#ED7770"/>
<stop offset="0.9" stop-color="#ED7770" stop-opacity="0"/>
</radialGradient>
<radialGradient id="paint2_radial_757_672" cx="0" cy="0" r="1" gradientUnits="userSpaceOnUse" gradientTransform="translate(16.4057 11.5973) scale(3.28242 3.23528)">
<stop stop-color="#ED7770"/>
<stop offset="0.9" stop-color="#ED7770" stop-opacity="0"/>
</radialGradient>
</defs>
</svg>
