<svg width="17" height="16" viewBox="0 0 17 16" fill="none" xmlns="http://www.w3.org/2000/svg">
<g clip-path="url(#clip0_104_367)">
<path d="M16.5 8C16.5 3.58175 12.9183 0 8.5 0C4.08175 0 0.5 3.58175 0.5 8C0.5 11.993 3.4255 15.3027 7.25 15.9028V10.3125H5.21875V8H7.25V6.2375C7.25 4.2325 8.44438 3.125 10.2718 3.125C11.147 3.125 12.0625 3.28125 12.0625 3.28125V5.25H11.0538C10.0599 5.25 9.75 5.86669 9.75 6.49937V8H11.9688L11.6141 10.3125H9.75V15.9028C13.5745 15.3027 16.5 11.9931 16.5 8Z" fill="#1877F2"/>
<path d="M11.6141 10.3125L11.9688 8H9.75V6.49937C9.75 5.86662 10.0599 5.25 11.0538 5.25H12.0625V3.28125C12.0625 3.28125 11.147 3.125 10.2717 3.125C8.44438 3.125 7.25 4.2325 7.25 6.2375V8H5.21875V10.3125H7.25V15.9028C7.66351 15.9676 8.08144 16.0001 8.5 16C8.91856 16.0001 9.33649 15.9676 9.75 15.9028V10.3125H11.6141Z" fill="white"/>
</g>
<defs>
<clipPath id="clip0_104_367">
<rect width="16" height="16" fill="white" transform="translate(0.5)"/>
</clipPath>
</defs>
</svg>
