<svg width="16" height="16" viewBox="0 0 16 16" fill="none" xmlns="http://www.w3.org/2000/svg">
<path d="M14.537 6.69437H14V6.66671H7.99998V9.33337H11.7676C11.218 10.8857 9.74098 12 7.99998 12C5.79098 12 3.99998 10.209 3.99998 8.00004C3.99998 5.79104 5.79098 4.00004 7.99998 4.00004C9.01965 4.00004 9.94731 4.38471 10.6536 5.01304L12.5393 3.12737C11.3486 2.01771 9.75598 1.33337 7.99998 1.33337C4.31831 1.33337 1.33331 4.31837 1.33331 8.00004C1.33331 11.6817 4.31831 14.6667 7.99998 14.6667C11.6816 14.6667 14.6666 11.6817 14.6666 8.00004C14.6666 7.55304 14.6206 7.11671 14.537 6.69437Z" fill="#FFC107"/>
<path d="M2.10199 4.89704L4.29232 6.50337C4.88499 5.03604 6.32032 4.00004 7.99999 4.00004C9.01966 4.00004 9.94732 4.38471 10.6537 5.01304L12.5393 3.12737C11.3487 2.01771 9.75599 1.33337 7.99999 1.33337C5.43932 1.33337 3.21866 2.77904 2.10199 4.89704Z" fill="#FF3D00"/>
<path d="M8 14.6667C9.722 14.6667 11.2867 14.0077 12.4697 12.936L10.4063 11.19C9.71463 11.7163 8.86919 12.0009 8 12C6.266 12 4.79367 10.8943 4.239 9.35132L2.065 11.0263C3.16834 13.1853 5.409 14.6667 8 14.6667Z" fill="#4CAF50"/>
<path d="M14.537 6.69429H14V6.66663H8V9.33329H11.7677C11.5047 10.0721 11.0311 10.7177 10.4053 11.1903L10.4063 11.1896L12.4697 12.9356C12.3237 13.0683 14.6667 11.3333 14.6667 7.99996C14.6667 7.55296 14.6207 7.11663 14.537 6.69429Z" fill="#1976D2"/>
</svg>
