<svg width="16" height="9" viewBox="0 0 16 9" fill="none" xmlns="http://www.w3.org/2000/svg">
<path d="M6.75333 6.56129L6.22866 8.52129L4.94066 8.17662L5.46533 6.21662C4.68009 5.92703 3.95022 5.50516 3.30733 4.96929L1.872 6.40462L0.92933 5.46195L2.36466 4.02595C1.55412 3.05508 1.00948 1.89044 0.783997 0.645954L1.384 0.536621C3.31016 1.92529 5.62544 2.67069 8 2.66662C10.4693 2.66662 12.7547 1.87729 14.616 0.536621L15.216 0.645288C14.9908 1.88994 14.4464 3.05482 13.636 4.02595L15.0713 5.46195L14.1287 6.40462L12.6927 4.96929C12.0498 5.5054 11.32 5.9275 10.5347 6.21729L11.06 8.17662L9.772 8.52129L9.24666 6.56129C8.42153 6.70231 7.57846 6.70231 6.75333 6.56129Z" fill="#7E8491"/>
</svg>
