<svg width="16" height="16" viewBox="0 0 16 16" fill="none" xmlns="http://www.w3.org/2000/svg">
<path d="M13.3333 5.33325H9.59198L10.3406 3.08859C10.4753 2.68325 10.4073 2.23392 10.1573 1.88725C9.90731 1.54059 9.50198 1.33325 9.07465 1.33325H7.99998C7.80198 1.33325 7.61465 1.42125 7.48731 1.57325L4.35398 5.33325H2.66665C1.93131 5.33325 1.33331 5.93125 1.33331 6.66658V12.6666C1.33331 13.4019 1.93131 13.9999 2.66665 13.9999H11.538C11.8092 13.999 12.0738 13.9158 12.2968 13.7613C12.5197 13.6068 12.6906 13.3883 12.7866 13.1346L14.6246 8.23392C14.6526 8.15906 14.6668 8.0798 14.6666 7.99992V6.66658C14.6666 5.93125 14.0686 5.33325 13.3333 5.33325ZM2.66665 6.66658H3.99998V12.6666H2.66665V6.66658ZM13.3333 7.87925L11.538 12.6666H5.33331V6.24125L8.31198 2.66659H9.07598L8.03465 5.78858C8.00084 5.88879 7.99141 5.99562 8.00714 6.1002C8.02287 6.20479 8.0633 6.30411 8.12509 6.38995C8.18687 6.47578 8.26823 6.54565 8.36241 6.59376C8.45659 6.64187 8.56089 6.66683 8.66665 6.66658H13.3333V7.87925Z" fill="#66BAD0"/>
<path d="M13.3333 7.87925L11.538 12.6666H5.33331V6.24125L8.31198 2.66659H9.07598L8.03465 5.78858C8.00084 5.88879 7.99141 5.99562 8.00714 6.1002C8.02287 6.20479 8.0633 6.30411 8.12509 6.38995C8.18687 6.47578 8.26823 6.54565 8.36241 6.59376C8.45659 6.64187 8.56089 6.66683 8.66665 6.66658H13.3333V7.87925Z" fill="#66BAD0"/>
</svg>
