<svg width="21" height="21" viewBox="0 0 21 21" fill="none" xmlns="http://www.w3.org/2000/svg">
<g clip-path="url(#clip0_4773_405)">
<path fill-rule="evenodd" clip-rule="evenodd" d="M10.25 5.76172C10.4158 5.76172 10.5747 5.82757 10.6919 5.94478C10.8092 6.06199 10.875 6.22096 10.875 6.38672V7.17922L11.5612 6.78297C11.6324 6.74128 11.711 6.71407 11.7927 6.70291C11.8743 6.69174 11.9574 6.69684 12.0371 6.71791C12.1168 6.73898 12.1915 6.7756 12.257 6.82566C12.3225 6.87573 12.3774 6.93826 12.4186 7.00964C12.4598 7.08102 12.4865 7.15985 12.4971 7.24159C12.5078 7.32332 12.5021 7.40636 12.4805 7.4859C12.4589 7.56545 12.4218 7.63994 12.3713 7.70508C12.3208 7.77022 12.2579 7.82473 12.1862 7.86547L11.5 8.26172L12.1862 8.65797C12.2579 8.69871 12.3208 8.75322 12.3713 8.81836C12.4218 8.8835 12.4589 8.95799 12.4805 9.03754C12.5021 9.11708 12.5078 9.20011 12.4971 9.28185C12.4865 9.36359 12.4598 9.44242 12.4186 9.5138C12.3774 9.58518 12.3225 9.64771 12.257 9.69777C12.1915 9.74784 12.1168 9.78446 12.0371 9.80553C11.9574 9.8266 11.8743 9.8317 11.7927 9.82053C11.711 9.80936 11.6324 9.78216 11.5612 9.74047L10.875 9.34422V10.1367C10.875 10.3025 10.8092 10.4615 10.6919 10.5787C10.5747 10.6959 10.4158 10.7617 10.25 10.7617C10.0842 10.7617 9.92527 10.6959 9.80806 10.5787C9.69085 10.4615 9.625 10.3025 9.625 10.1367V9.34422L8.93875 9.74047C8.86764 9.78216 8.78899 9.80936 8.70733 9.82053C8.62566 9.8317 8.5426 9.8266 8.46291 9.80553C8.38322 9.78446 8.30849 9.74784 8.24301 9.69777C8.17754 9.64771 8.12261 9.58518 8.0814 9.5138C8.04018 9.44242 8.0135 9.36359 8.00287 9.28185C7.99225 9.20011 7.9979 9.11708 8.01949 9.03754C8.04109 8.95799 8.07821 8.8835 8.12871 8.81836C8.17921 8.75322 8.2421 8.69871 8.31375 8.65797L9 8.26172L8.31375 7.86547C8.17137 7.782 8.06779 7.6456 8.0256 7.48604C7.98342 7.32648 8.00606 7.15671 8.08858 7.01378C8.1711 6.87085 8.30681 6.76637 8.46608 6.72313C8.62536 6.67988 8.79528 6.7014 8.93875 6.78297L9.625 7.17922V6.38672C9.625 6.22096 9.69085 6.06199 9.80806 5.94478C9.92527 5.82757 10.0842 5.76172 10.25 5.76172ZM6.5 12.6367C6.5 12.471 6.56585 12.312 6.68306 12.1948C6.80027 12.0776 6.95924 12.0117 7.125 12.0117H13.375C13.5408 12.0117 13.6997 12.0776 13.8169 12.1948C13.9342 12.312 14 12.471 14 12.6367C14 12.8025 13.9342 12.9615 13.8169 13.0787C13.6997 13.1959 13.5408 13.2617 13.375 13.2617H7.125C6.95924 13.2617 6.80027 13.1959 6.68306 13.0787C6.56585 12.9615 6.5 12.8025 6.5 12.6367ZM6.5 15.1367C6.5 14.971 6.56585 14.812 6.68306 14.6948C6.80027 14.5776 6.95924 14.5117 7.125 14.5117H13.375C13.5408 14.5117 13.6997 14.5776 13.8169 14.6948C13.9342 14.812 14 14.971 14 15.1367C14 15.3025 13.9342 15.4615 13.8169 15.5787C13.6997 15.6959 13.5408 15.7617 13.375 15.7617H7.125C6.95924 15.7617 6.80027 15.6959 6.68306 15.5787C6.56585 15.4615 6.5 15.3025 6.5 15.1367Z" fill="#A0A5AB"/>
<path d="M4 0.761719H16.5C17.163 0.761719 17.7989 1.02511 18.2678 1.49395C18.7366 1.96279 19 2.59868 19 3.26172V18.2617C19 18.9248 18.7366 19.5606 18.2678 20.0295C17.7989 20.4983 17.163 20.7617 16.5 20.7617H4C3.33696 20.7617 2.70107 20.4983 2.23223 20.0295C1.76339 19.5606 1.5 18.9248 1.5 18.2617V17.0117H2.75V18.2617C2.75 18.5932 2.8817 18.9112 3.11612 19.1456C3.35054 19.38 3.66848 19.5117 4 19.5117H16.5C16.8315 19.5117 17.1495 19.38 17.3839 19.1456C17.6183 18.9112 17.75 18.5932 17.75 18.2617V3.26172C17.75 2.9302 17.6183 2.61226 17.3839 2.37784C17.1495 2.14341 16.8315 2.01172 16.5 2.01172H4C3.66848 2.01172 3.35054 2.14341 3.11612 2.37784C2.8817 2.61226 2.75 2.9302 2.75 3.26172V4.51172H1.5V3.26172C1.5 2.59868 1.76339 1.96279 2.23223 1.49395C2.70107 1.02511 3.33696 0.761719 4 0.761719Z" fill="#A0A5AB"/>
<path d="M1.5 7.01172V6.38672C1.5 6.22096 1.56585 6.06199 1.68306 5.94478C1.80027 5.82757 1.95924 5.76172 2.125 5.76172C2.29076 5.76172 2.44973 5.82757 2.56694 5.94478C2.68415 6.06199 2.75 6.22096 2.75 6.38672V7.01172H3.375C3.54076 7.01172 3.69973 7.07757 3.81694 7.19478C3.93415 7.31199 4 7.47096 4 7.63672C4 7.80248 3.93415 7.96145 3.81694 8.07866C3.69973 8.19587 3.54076 8.26172 3.375 8.26172H0.875C0.70924 8.26172 0.550269 8.19587 0.433058 8.07866C0.315848 7.96145 0.25 7.80248 0.25 7.63672C0.25 7.47096 0.315848 7.31199 0.433058 7.19478C0.550269 7.07757 0.70924 7.01172 0.875 7.01172H1.5ZM1.5 10.7617V10.1367C1.5 9.97096 1.56585 9.81199 1.68306 9.69478C1.80027 9.57757 1.95924 9.51172 2.125 9.51172C2.29076 9.51172 2.44973 9.57757 2.56694 9.69478C2.68415 9.81199 2.75 9.97096 2.75 10.1367V10.7617H3.375C3.54076 10.7617 3.69973 10.8276 3.81694 10.9448C3.93415 11.062 4 11.221 4 11.3867C4 11.5525 3.93415 11.7115 3.81694 11.8287C3.69973 11.9459 3.54076 12.0117 3.375 12.0117H0.875C0.70924 12.0117 0.550269 11.9459 0.433058 11.8287C0.315848 11.7115 0.25 11.5525 0.25 11.3867C0.25 11.221 0.315848 11.062 0.433058 10.9448C0.550269 10.8276 0.70924 10.7617 0.875 10.7617H1.5ZM1.5 14.5117V13.8867C1.5 13.721 1.56585 13.562 1.68306 13.4448C1.80027 13.3276 1.95924 13.2617 2.125 13.2617C2.29076 13.2617 2.44973 13.3276 2.56694 13.4448C2.68415 13.562 2.75 13.721 2.75 13.8867V14.5117H3.375C3.54076 14.5117 3.69973 14.5776 3.81694 14.6948C3.93415 14.812 4 14.971 4 15.1367C4 15.3025 3.93415 15.4615 3.81694 15.5787C3.69973 15.6959 3.54076 15.7617 3.375 15.7617H0.875C0.70924 15.7617 0.550269 15.6959 0.433058 15.5787C0.315848 15.4615 0.25 15.3025 0.25 15.1367C0.25 14.971 0.315848 14.812 0.433058 14.6948C0.550269 14.5776 0.70924 14.5117 0.875 14.5117H1.5Z" fill="#A0A5AB"/>
</g>
<defs>
<clipPath id="clip0_4773_405">
<rect width="20" height="20" fill="white" transform="translate(0.25 0.761719)"/>
</clipPath>
</defs>
</svg>
