<svg width="21" height="21" viewBox="0 0 21 21" fill="none" xmlns="http://www.w3.org/2000/svg">
<path d="M3.9375 8.88672C3.65023 8.88672 3.36578 8.9433 3.10038 9.05323C2.83498 9.16316 2.59383 9.32429 2.3907 9.52742C2.18758 9.73055 2.02645 9.9717 1.91651 10.2371C1.80658 10.5025 1.75 10.787 1.75 11.0742C1.75 11.3615 1.80658 11.6459 1.91651 11.9113C2.02645 12.1767 2.18758 12.4179 2.3907 12.621C2.59383 12.8241 2.83498 12.9853 3.10038 13.0952C3.36578 13.2051 3.65023 13.2617 3.9375 13.2617C4.51766 13.2617 5.07406 13.0313 5.4843 12.621C5.89453 12.2108 6.125 11.6544 6.125 11.0742C6.125 10.4941 5.89453 9.93766 5.4843 9.52742C5.07406 9.11719 4.51766 8.88672 3.9375 8.88672ZM3.9375 10.1367C4.18614 10.1367 4.4246 10.2355 4.60041 10.4113C4.77623 10.5871 4.875 10.8256 4.875 11.0742C4.875 11.3229 4.77623 11.5613 4.60041 11.7371C4.4246 11.9129 4.18614 12.0117 3.9375 12.0117C3.68886 12.0117 3.4504 11.9129 3.27459 11.7371C3.09877 11.5613 3 11.3229 3 11.0742C3 10.8256 3.09877 10.5871 3.27459 10.4113C3.4504 10.2355 3.68886 10.1367 3.9375 10.1367ZM10.5 8.88672C10.7873 8.88672 11.0717 8.9433 11.3371 9.05323C11.6025 9.16316 11.8437 9.32429 12.0468 9.52742C12.2499 9.73055 12.4111 9.9717 12.521 10.2371C12.6309 10.5025 12.6875 10.787 12.6875 11.0742C12.6875 11.3615 12.6309 11.6459 12.521 11.9113C12.4111 12.1767 12.2499 12.4179 12.0468 12.621C11.8437 12.8241 11.6025 12.9853 11.3371 13.0952C11.0717 13.2051 10.7873 13.2617 10.5 13.2617C9.91984 13.2617 9.36344 13.0313 8.9532 12.621C8.54297 12.2108 8.3125 11.6544 8.3125 11.0742C8.3125 10.4941 8.54297 9.93766 8.9532 9.52742C9.36344 9.11719 9.91984 8.88672 10.5 8.88672ZM10.5 10.1367C10.2514 10.1367 10.0129 10.2355 9.83709 10.4113C9.66127 10.5871 9.5625 10.8256 9.5625 11.0742C9.5625 11.3229 9.66127 11.5613 9.83709 11.7371C10.0129 11.9129 10.2514 12.0117 10.5 12.0117C10.7486 12.0117 10.9871 11.9129 11.1629 11.7371C11.3387 11.5613 11.4375 11.3229 11.4375 11.0742C11.4375 10.8256 11.3387 10.5871 11.1629 10.4113C10.9871 10.2355 10.7486 10.1367 10.5 10.1367ZM17.0625 8.88672C17.3498 8.88672 17.6342 8.9433 17.8996 9.05323C18.165 9.16316 18.4062 9.32429 18.6093 9.52742C18.8124 9.73055 18.9736 9.9717 19.0835 10.2371C19.1934 10.5025 19.25 10.787 19.25 11.0742C19.25 11.3615 19.1934 11.6459 19.0835 11.9113C18.9736 12.1767 18.8124 12.4179 18.6093 12.621C18.4062 12.8241 18.165 12.9853 17.8996 13.0952C17.6342 13.2051 17.3498 13.2617 17.0625 13.2617C16.4823 13.2617 15.9259 13.0313 15.5157 12.621C15.1055 12.2108 14.875 11.6544 14.875 11.0742C14.875 10.4941 15.1055 9.93766 15.5157 9.52742C15.9259 9.11719 16.4823 8.88672 17.0625 8.88672ZM17.0625 10.1367C16.8139 10.1367 16.5754 10.2355 16.3996 10.4113C16.2238 10.5871 16.125 10.8256 16.125 11.0742C16.125 11.3229 16.2238 11.5613 16.3996 11.7371C16.5754 11.9129 16.8139 12.0117 17.0625 12.0117C17.3111 12.0117 17.5496 11.9129 17.7254 11.7371C17.9012 11.5613 18 11.3229 18 11.0742C18 10.8256 17.9012 10.5871 17.7254 10.4113C17.5496 10.2355 17.3111 10.1367 17.0625 10.1367Z" fill="#7E8491"/>
</svg>
