<svg width="25" height="24" viewBox="0 0 25 24" fill="none" xmlns="http://www.w3.org/2000/svg">
<path d="M6.86596 2.41295C6.99203 2.26248 7.05409 2.06857 7.03879 1.87286C7.0235 1.67714 6.93209 1.49523 6.78417 1.36616C6.63626 1.2371 6.44363 1.17117 6.24765 1.18253C6.05167 1.1939 5.86796 1.28165 5.73596 1.42695L4.44396 2.90695C3.71134 3.74652 3.29719 4.81692 3.27396 5.93095L3.21696 8.64995C3.21492 8.74844 3.23231 8.84637 3.26812 8.93814C3.30393 9.02991 3.35746 9.11374 3.42567 9.18482C3.49387 9.2559 3.57541 9.31285 3.66562 9.35243C3.75584 9.392 3.85297 9.41341 3.95146 9.41545C4.04995 9.41748 4.14788 9.4001 4.23965 9.36429C4.33142 9.32848 4.41524 9.27494 4.48633 9.20674C4.55741 9.13853 4.61436 9.057 4.65394 8.96678C4.69351 8.87657 4.71492 8.77944 4.71696 8.68095L4.77296 5.96295C4.789 5.20068 5.07253 4.46831 5.57396 3.89395L6.86596 2.41295Z" fill="#66BAD0"/>
<path fill-rule="evenodd" clip-rule="evenodd" d="M6.67396 7.7C6.74112 6.63014 7.21348 5.62608 7.99488 4.89224C8.77629 4.15839 9.80799 3.74993 10.88 3.75H11.437V3C11.437 2.73478 11.5423 2.48043 11.7299 2.29289C11.9174 2.10536 12.1717 2 12.437 2C12.7022 2 12.9565 2.10536 13.1441 2.29289C13.3316 2.48043 13.437 2.73478 13.437 3V3.75H13.994C15.0659 3.74993 16.0976 4.15839 16.879 4.89224C17.6604 5.62608 18.1328 6.63014 18.2 7.7L18.421 11.234C18.5064 12.5812 18.9587 13.8794 19.729 14.988C19.8883 15.2171 19.9857 15.4835 20.0116 15.7613C20.0375 16.0392 19.9911 16.319 19.8768 16.5736C19.7626 16.8281 19.5844 17.0488 19.3596 17.2142C19.1348 17.3795 18.871 17.4838 18.594 17.517L15.187 17.925V19C15.187 19.7293 14.8972 20.4288 14.3815 20.9445C13.8658 21.4603 13.1663 21.75 12.437 21.75C11.7076 21.75 11.0081 21.4603 10.4924 20.9445C9.97669 20.4288 9.68696 19.7293 9.68696 19V17.925L6.27996 17.516C6.00306 17.4827 5.73947 17.3784 5.51481 17.2131C5.29014 17.0478 5.11205 16.8273 4.99781 16.5729C4.88358 16.3184 4.8371 16.0388 4.86288 15.7611C4.88867 15.4834 4.98584 15.2171 5.14496 14.988C5.91521 13.8794 6.36753 12.5812 6.45296 11.234L6.67396 7.7ZM10.88 5.25C10.1895 5.24992 9.52503 5.51297 9.02174 5.98561C8.51845 6.45825 8.21421 7.10493 8.17096 7.794L7.95096 11.328C7.84814 12.9487 7.30382 14.5105 6.37696 15.844C6.36543 15.8606 6.35838 15.8798 6.3565 15.8999C6.35461 15.92 6.35796 15.9403 6.36622 15.9587C6.37447 15.9771 6.38735 15.9931 6.4036 16.005C6.41985 16.017 6.43892 16.0246 6.45896 16.027L10.196 16.476C11.685 16.654 13.189 16.654 14.678 16.476L18.415 16.027C18.435 16.0246 18.4541 16.017 18.4703 16.005C18.4866 15.9931 18.4995 15.9771 18.5077 15.9587C18.516 15.9403 18.5193 15.92 18.5174 15.8999C18.5155 15.8798 18.5085 15.8606 18.497 15.844C17.5705 14.5104 17.0265 12.9486 16.924 11.328L16.703 7.794C16.6597 7.10493 16.3555 6.45825 15.8522 5.98561C15.3489 5.51297 14.6844 5.24992 13.994 5.25H10.88ZM12.437 20.25C11.747 20.25 11.187 19.69 11.187 19V18.25H13.687V19C13.687 19.69 13.127 20.25 12.437 20.25Z" fill="#66BAD0"/>
<path d="M18.08 1.35495C17.9302 1.48573 17.8385 1.67065 17.825 1.86905C17.8115 2.06745 17.8773 2.26309 18.008 2.41295L19.3 3.89295C19.8013 4.46772 20.0845 5.20046 20.1 5.96295L20.157 8.67996C20.1611 8.87887 20.2441 9.068 20.3877 9.20575C20.5312 9.34349 20.7236 9.41857 20.9225 9.41446C21.1214 9.41034 21.3106 9.32738 21.4483 9.18383C21.5861 9.04027 21.6611 8.84787 21.657 8.64895L21.6 5.93095C21.5768 4.81693 21.1626 3.74652 20.43 2.90695L19.138 1.42695C19.0073 1.27714 18.8223 1.1854 18.6239 1.1719C18.4255 1.1584 18.2299 1.22424 18.08 1.35495Z" fill="#66BAD0"/>
</svg>
