<svg width="21" height="22" viewBox="0 0 21 22" fill="none" xmlns="http://www.w3.org/2000/svg">
<path d="M10.435 1C7.42698 1 5.47698 3.019 3.17098 3.755C2.23298 4.055 1.76398 4.204 1.57398 4.415C1.38398 4.625 1.32898 4.934 1.21798 5.55C0.0279821 12.146 2.62798 18.244 8.82798 20.618C9.49298 20.873 9.82598 21 10.438 21C11.05 21 11.384 20.872 12.05 20.617C18.249 18.244 20.846 12.146 19.656 5.55C19.545 4.934 19.489 4.625 19.299 4.414C19.109 4.203 18.641 4.054 17.703 3.755C15.396 3.019 13.443 1 10.435 1Z" stroke="#66BAD0" stroke-width="1.5" stroke-linecap="round" stroke-linejoin="round"/>
<path d="M8.43701 11.5C8.43701 11.5 8.93701 11.5 9.43701 12.5C9.43701 12.5 11.025 10 12.437 9.5" stroke="#66BAD0" stroke-width="1.5" stroke-linecap="round" stroke-linejoin="round"/>
<path d="M15.437 11C15.437 12.3261 14.9102 13.5979 13.9725 14.5355C13.0349 15.4732 11.7631 16 10.437 16C9.11093 16 7.83916 15.4732 6.90148 14.5355C5.9638 13.5979 5.43701 12.3261 5.43701 11C5.43701 9.67392 5.9638 8.40215 6.90148 7.46447C7.83916 6.52678 9.11093 6 10.437 6C11.7631 6 13.0349 6.52678 13.9725 7.46447C14.9102 8.40215 15.437 9.67392 15.437 11Z" stroke="#66BAD0" stroke-width="1.5" stroke-linecap="round" stroke-linejoin="round"/>
</svg>
