<svg width="24" height="25" viewBox="0 0 24 25" fill="none" xmlns="http://www.w3.org/2000/svg">
<path d="M22.5 18.2982L21 17.5482V15.7617C20.9982 14.6993 20.6208 13.6717 19.9346 12.8605C19.2484 12.0494 18.2975 11.507 17.25 11.3292V9.76172H15.75V11.3292C14.7025 11.507 13.7516 12.0494 13.0654 12.8605C12.3792 13.6717 12.0018 14.6993 12 15.7617V17.5482L10.5 18.2982V21.7617H15V23.2617H18V21.7617H22.5V18.2982ZM21 20.2617H12V19.2252L13.5 18.4752V15.7617C13.5 14.9661 13.8161 14.203 14.3787 13.6404C14.9413 13.0778 15.7044 12.7617 16.5 12.7617C17.2956 12.7617 18.0587 13.0778 18.6213 13.6404C19.1839 14.203 19.5 14.9661 19.5 15.7617V18.4752L21 19.2252V20.2617Z" fill="#A0A5AB"/>
<path d="M21 5.26172C21 4.86389 20.842 4.48236 20.5607 4.20106C20.2794 3.91975 19.8978 3.76172 19.5 3.76172H16.5V2.26172H15V3.76172H9V2.26172H7.5V3.76172H4.5C4.10218 3.76172 3.72064 3.91975 3.43934 4.20106C3.15804 4.48236 3 4.86389 3 5.26172V20.2617C3 20.6595 3.15804 21.0411 3.43934 21.3224C3.72064 21.6037 4.10218 21.7617 4.5 21.7617H7.5V20.2617H4.5V5.26172H7.5V6.76172H9V5.26172H15V6.76172H16.5V5.26172H19.5V9.76172H21V5.26172Z" fill="#A0A5AB"/>
</svg>
