<svg width="28" height="20" viewBox="0 0 28 20" fill="none" xmlns="http://www.w3.org/2000/svg">
<g clip-path="url(#clip0_4687_1900)">
<path fill-rule="evenodd" clip-rule="evenodd" d="M0 0H28V20H0V0Z" fill="#199D00"/>
<path fill-rule="evenodd" clip-rule="evenodd" d="M5.71277 7.55738C5.68136 8.18238 5.63425 9.27613 6.03866 9.39071C6.52159 9.45321 6.2546 8.30738 6.43128 8.09904C6.46269 7.99488 6.52159 7.99488 6.52551 8.12508V9.09904C6.52551 9.41154 6.68257 9.50529 6.80035 9.56779C6.926 9.55738 7.01237 9.56779 7.05949 9.72404L7.12231 11.4063C7.12231 11.4063 7.41285 11.5209 7.42856 10.4636C7.44034 9.83863 7.33433 9.323 7.39715 9.20321C7.39715 9.08342 7.51494 9.07821 7.59346 9.1355C7.7191 9.25008 7.77407 9.39592 7.97039 9.34383C8.26878 9.22925 8.44939 9.03654 8.45332 8.73446C8.44743 8.43759 8.40086 8.14463 8.3159 7.86988C8.3316 7.81779 8.26093 7.67717 8.27664 7.62508C8.32768 7.73967 8.41013 7.72925 8.42584 7.62508C8.37479 7.40633 8.29627 7.19279 8.17063 7.10425C8.06462 6.97925 7.90757 7.00008 7.85652 7.2605C7.82511 7.55738 7.93505 7.90633 8.09603 8.198C8.13136 8.30738 8.17848 8.49488 8.15885 8.66154C8.07247 8.72925 7.98609 8.698 7.91149 8.59904C7.91149 8.59904 7.67592 8.36467 7.67592 8.30738C7.73874 7.77613 7.68769 7.71363 7.65236 7.56258C7.6288 7.35946 7.5542 7.29175 7.49531 7.15633C7.43641 7.073 7.35789 7.073 7.31862 7.15633C7.21261 7.39592 7.26366 7.91154 7.33826 8.14592C7.39322 8.35946 7.47568 8.49488 7.43641 8.49488C7.405 8.61467 7.33826 8.58342 7.28721 8.44279C7.22976 8.14685 7.20203 7.84213 7.20476 7.53654C7.18513 7.29696 7.16157 6.78654 7.03986 6.65113C6.96918 6.52613 6.86318 6.58863 6.82391 6.70321C6.81355 6.93589 6.81748 7.1693 6.83569 7.40113C6.91422 7.78654 6.9417 8.13029 6.98096 8.52092C6.99274 9.04696 6.75324 8.75008 6.76502 8.48446C6.81653 8.15052 6.81251 7.80571 6.75324 7.47404C6.71398 7.33863 6.67079 7.30738 6.57263 7.32821C6.49803 7.32821 6.30564 7.60425 6.25068 8.073C6.25068 8.073 6.20356 8.31258 6.18393 8.52613C6.15644 8.76571 6.03866 8.94279 5.95228 8.49488C5.8816 8.16675 5.83449 7.36988 5.7167 7.55738H5.71277Z" fill="white"/>
<path fill-rule="evenodd" clip-rule="evenodd" d="M7.02789 10.1146L5.77148 10.9167C5.78326 10.5365 6.36435 9.85421 6.76483 9.849C7.02004 9.85421 6.95722 9.97921 7.02397 10.1146H7.02789Z" fill="white"/>
<path fill-rule="evenodd" clip-rule="evenodd" d="M6.80398 10.6354C6.14437 12.9011 8.35486 13.2188 8.60222 10.7292C8.62578 10.625 8.72001 10.5261 8.73571 10.6927C8.68467 12.9479 7.02385 13.099 6.74116 12.3907C6.67466 12.1469 6.64142 11.8894 6.64301 11.6302C6.60374 11.1875 6.42706 11.3594 6.39958 11.7969C6.37209 12.0417 6.37994 12.1094 6.37994 12.3438C6.46632 14.125 8.60615 13.3594 8.95559 11.8907C9.14012 11.0782 8.92418 10.4792 9.02233 10.4792C9.23435 10.7813 9.53275 10.5209 9.5995 10.4167C9.62698 10.3646 9.69765 10.3282 9.74477 10.3959C9.90967 10.5521 10.2002 10.4792 10.263 10.2032C10.2984 9.92711 10.3259 9.64586 10.3337 9.3594C10.1963 9.41149 10.0981 9.44795 10.0864 9.52607L10.0589 9.76565C10.0471 9.84378 9.93323 9.84378 9.92538 9.74482C9.87434 9.43232 9.66232 9.39586 9.53275 9.87503C9.4503 9.96878 9.29325 9.98961 9.27754 9.84899C9.29717 9.52607 9.19902 9.4844 9.0027 9.63545L8.81424 7.75003C8.89277 7.75003 8.97129 7.82815 9.04589 7.70315C8.96736 7.36461 8.79068 6.67711 8.69252 6.62503C8.64934 6.55211 8.61007 6.59899 8.54725 6.61982C8.44517 6.66149 8.35094 6.77607 8.38235 7.00524C8.50014 7.9844 8.57866 8.7292 8.70038 9.71357C8.72001 9.82295 8.64934 9.97399 8.5551 9.95836C8.39805 9.81774 8.35879 9.53128 8.08395 9.5417C7.88764 9.5417 7.66777 9.82815 7.64028 10.099C7.60494 10.3177 7.59317 10.5521 7.64028 10.7396C7.7777 10.9584 7.94261 10.9375 8.08788 10.8907C8.20567 10.8229 8.30382 10.6667 8.34701 10.7032C8.3745 10.75 8.35094 11.2709 7.78555 11.6667C7.44397 11.875 7.16913 11.9167 7.02385 11.5469C6.93355 11.3125 7.03171 10.4323 6.80398 10.6354Z" fill="white"/>
<path fill-rule="evenodd" clip-rule="evenodd" d="M9.6192 8.33334C9.74876 8.27084 10.377 7.3125 10.377 7.3125L10.2827 7.20834C10.2474 7.17188 10.2513 7.13021 10.2827 7.09375C10.4398 6.96875 10.3887 6.70834 10.3102 6.58334C10.2569 6.54886 10.1983 6.53138 10.139 6.53229C10.0797 6.53319 10.0213 6.55245 9.96864 6.58854C9.8587 6.72917 9.83514 6.95313 9.92152 7.08854C10.004 7.14063 10.0864 7.25521 10.0315 7.31771C9.77232 7.68229 9.06952 8.3125 9.15197 8.33334C9.16768 8.36459 9.60349 8.36459 9.61527 8.33334H9.6192ZM5.8107 11.7188C5.57513 12.2188 5.5555 12.9635 5.68506 13.1875C5.75574 13.2917 5.8696 13.3385 5.95205 13.3021C6.10125 13.2188 6.168 12.8177 6.13266 12.6771C6.08162 12.5729 6.04235 12.5573 5.99131 12.6406C5.88923 12.9219 5.84604 12.7292 5.83426 12.5729C5.82301 12.3083 5.83354 12.0428 5.86567 11.7813C5.89316 11.5625 5.86567 11.625 5.8107 11.7188ZM15.9052 10.9219C15.6775 10.2656 15.3594 9.61979 15.2613 9.375C14.9553 8.73336 14.6305 8.10788 14.2875 7.5C14.0441 7.11459 14.688 7.66146 14.209 6.89063L13.8596 6.5C13.7811 6.42709 13.5926 6.29167 13.5612 6.51042C13.5455 6.70834 13.5533 6.8125 13.5769 6.97396C13.5965 7.07813 13.7143 7.26042 13.7732 7.36459C14.5781 8.77889 15.2851 10.2867 15.8855 11.8698C15.9876 11.8021 15.9641 11.0313 15.9052 10.9219Z" fill="white"/>
<path fill-rule="evenodd" clip-rule="evenodd" d="M14.9039 13.099C14.8568 13.1667 15.0139 13.4532 15.218 13.4532C15.5557 13.4011 15.8541 13.1511 16.1289 12.4844C16.2406 12.2626 16.3118 12.0094 16.337 11.7448C16.3703 10.4805 16.2939 9.21522 16.1093 7.974C16.0975 7.86984 16.1093 7.74484 16.1171 7.71359C16.1407 7.67713 16.2153 7.71359 16.2546 7.62505C16.3135 7.54692 16.0975 6.89588 15.9797 6.65109C15.9405 6.5365 15.9208 6.46359 15.8502 6.6615C15.7649 6.87989 15.7243 7.12413 15.7324 7.36984C15.8933 8.85421 15.9444 10.1511 16.0465 11.6355C16.0582 11.7813 16.0425 11.9896 15.9679 12.073C15.6717 12.5105 15.3091 12.8602 14.9039 13.099ZM19.478 13.0938C19.2346 13.2813 19.2346 13.4948 19.4309 13.5C19.7686 13.448 20.1691 13.4115 20.4439 12.8594C20.541 12.5994 20.5971 12.3158 20.6088 12.0261C20.6582 10.7812 20.5963 9.5329 20.4243 8.30734C20.4164 8.20317 20.3811 7.95838 20.3929 7.92713C20.4164 7.85421 20.5264 7.93234 20.5656 7.849C20.6206 7.77088 20.279 7.18755 20.1573 6.93755C20.118 6.82296 20.1023 6.75005 20.0277 6.94796C19.9486 7.16836 19.9239 7.4162 19.957 7.6563C20.1377 9.27088 20.2711 10.4792 20.2986 11.9063C20.2829 12.0417 20.279 12.1146 20.2319 12.2865C20.1259 12.4636 20.0081 12.6928 19.8982 12.8021C19.7882 12.9063 19.5526 13.0105 19.478 13.0938Z" fill="white"/>
<path fill-rule="evenodd" clip-rule="evenodd" d="M19.659 11.6511C19.659 11.2709 19.6629 10.948 19.6551 10.6615C19.6526 10.4189 19.6125 10.1796 19.5373 9.95838C19.4666 9.74484 19.5098 9.57296 19.4745 9.3438C19.4431 9.11463 19.4509 8.77088 19.4038 8.50526C19.3881 8.40109 19.3488 8.06255 19.3606 8.02609C19.3803 7.95317 19.4549 8.02609 19.4941 7.94276C19.5491 7.86463 19.2978 7.00526 19.1722 6.76047C19.129 6.65109 19.0426 6.68755 18.9444 6.86463C18.8463 6.98442 18.8816 7.25005 18.9209 7.50526C19.1604 9.18755 19.3449 10.7136 19.3057 12.3125C19.2899 12.448 19.659 11.9063 19.659 11.6511ZM17.8647 9.56776C17.7116 9.55734 17.3936 9.16672 17.2993 8.94276C17.2839 8.88802 17.2773 8.82959 17.28 8.77127C17.2827 8.71295 17.2947 8.65603 17.315 8.60422C17.3739 8.55213 17.4603 8.50005 17.527 8.55213C17.527 8.55213 17.5938 8.67713 17.582 8.69276C17.6605 8.74484 17.6998 8.7188 17.7077 8.67192C17.7116 8.5938 17.6841 8.54692 17.6841 8.46359C17.7194 8.22401 17.9197 8.18755 17.9982 8.33859C18.0532 8.43234 18.0767 8.62505 18.0807 8.75526C18.0807 8.82297 18.0021 8.74484 17.9511 8.75526C17.9079 8.77609 17.8961 8.84901 17.8922 8.91151C17.8843 9.08338 17.8686 9.35942 17.8647 9.56255V9.56776ZM15.0456 12.0678C15.0849 11.5573 15.0299 10.6459 15.026 10.3438C15.005 9.5669 14.9565 8.79175 14.8807 8.02088C14.8336 7.58338 15.0142 8.06776 14.9907 7.81255C14.9318 7.38026 14.7512 7.08338 14.5352 6.69276C14.4685 6.56255 14.4685 6.53651 14.3625 6.72401C14.2447 7.07297 14.3468 7.31776 14.3782 7.5938C14.5313 8.48963 14.6216 9.31255 14.6648 10.1303C14.71 10.9797 14.7152 11.832 14.6805 12.6823C14.7983 12.6875 14.9789 12.4375 15.0456 12.0678Z" fill="white"/>
<path fill-rule="evenodd" clip-rule="evenodd" d="M20.1816 11.25C19.9107 10.6458 19.5063 9.99998 19.3964 9.75519C19.0323 9.08075 18.6499 8.42407 18.2499 7.78644C17.9161 7.31769 18.4069 7.70831 18.1871 7.34373C18.0025 7.07811 17.9515 6.98956 17.7905 6.82811C17.712 6.7604 17.6649 6.63019 17.6335 6.85415C17.6209 7.04814 17.6183 7.24302 17.6256 7.43748C17.6256 7.52602 17.6963 7.6979 17.7591 7.80206C18.5718 9.13019 19.4631 10.4844 20.1777 12.1875C20.2798 12.1198 20.2444 11.3541 20.1777 11.25H20.1816Z" fill="white"/>
<path fill-rule="evenodd" clip-rule="evenodd" d="M7.95478 10.1406C7.93515 10.1875 7.89196 10.2448 7.90767 10.3021C7.93515 10.3542 7.96264 10.3698 8.00975 10.3698C8.05294 10.3698 8.11576 10.3854 8.12754 10.3542C8.1511 10.3177 8.1668 10.25 8.1511 10.1823C8.10398 10.026 7.97834 10.0885 7.95478 10.1406Z" fill="#1BA400"/>
<path fill-rule="evenodd" clip-rule="evenodd" d="M17.0478 18.8802C17.4091 18.901 17.6446 18.9062 17.9627 18.9531L18.3396 18.901C18.7558 18.8489 18.7715 19.6875 18.7715 19.6875C18.7715 20.1823 18.6262 20.2083 18.4417 20.2604C18.3357 20.2812 18.2846 20.1771 18.2257 20.0729C18.1369 20.1107 18.0423 20.1178 17.9509 20.0937C17.7978 20.0833 17.6486 20.0833 17.4994 20.0677C17.3423 20.0521 17.2559 20.0937 17.095 20.0729C17.0635 20.1406 17.0164 20.2344 16.9222 20.2083C16.8437 20.1927 16.7455 19.8958 16.773 19.6614C16.8319 19.4948 16.8123 19.5521 16.8123 19.4791C15.336 19.4271 13.8479 19.3385 12.403 19.3646C11.2723 19.3698 10.1572 19.4323 9.03822 19.4948C8.44143 19.4844 7.98598 19.3594 7.67188 18.75C7.70329 18.75 9.19527 18.8594 9.63109 18.8229C10.436 18.8125 11.1741 18.7239 11.9947 18.6927C13.6123 18.7291 15.2182 18.7291 16.8358 18.8802C16.6788 18.7396 16.6788 18.4114 16.9143 18.3281C16.934 18.3073 16.9458 18.4896 16.9811 18.4844C17.1735 18.4687 17.0871 18.8125 17.0478 18.8802ZM10.5459 7.04686C10.3025 7.97394 10.6873 8.99477 10.9542 8.89581C11.1506 8.99998 11.2683 8.5104 11.3469 7.97915C11.4058 7.82811 11.445 7.81248 11.4725 7.89061C11.4647 8.59894 11.5118 8.7604 11.6492 8.97394C11.9554 9.28644 12.2107 9.01561 12.2303 8.98956L12.4659 8.67186C12.5208 8.59373 12.5915 8.59373 12.6661 8.65623C12.7407 8.74477 12.7289 8.89581 12.886 8.99998C13.0195 9.0729 13.2982 9.02081 13.365 8.86977C13.4514 8.66665 13.4749 8.59894 13.5142 8.52602C13.577 8.41665 13.683 8.46352 13.683 8.49998C13.6712 8.56248 13.6084 8.61977 13.6516 8.73436C13.7301 8.80727 13.7458 8.7604 13.789 8.74477C13.9461 8.64061 14.0639 8.19269 14.0639 8.19269C14.0678 8.02602 13.9971 8.03644 13.95 8.07811L13.8283 8.18748C13.7498 8.20311 13.6045 8.27081 13.5299 8.11977C13.4553 7.94269 13.4553 7.68748 13.4003 7.50519C13.4003 7.49477 13.2982 7.21873 13.3925 7.20311C13.4396 7.21352 13.5377 7.24998 13.5534 7.14061C13.6006 7.03123 13.4514 6.72394 13.3454 6.56769C13.255 6.43748 13.1294 6.42186 13.0077 6.55727C12.9213 6.66144 12.9331 6.77602 12.9174 6.8854C12.9025 6.96378 12.9018 7.04573 12.9155 7.12451C12.9292 7.20329 12.9567 7.27664 12.9959 7.33852C13.0823 7.55727 13.2354 7.84373 13.1844 8.24998C13.1844 8.24998 13.0941 8.43748 12.937 8.41144C12.8703 8.39581 12.7643 8.35936 12.7093 7.79686C12.6661 7.38019 12.7171 6.78644 12.5837 6.5104C12.5326 6.33852 12.4973 6.17706 12.3795 6.46352C12.3481 6.57811 12.2107 6.74998 12.3088 7.09894C12.4017 7.4134 12.4288 7.7553 12.3873 8.08852C12.3284 8.20311 12.3167 8.23956 12.2421 8.34894C12.14 8.50519 12.0261 8.46352 11.9397 8.40623C11.8612 8.33852 11.7984 8.30206 11.7591 8.06769C11.767 7.70311 11.7827 7.10415 11.7317 6.97915C11.6571 6.78123 11.5353 6.85415 11.4843 6.91665C11.2507 7.26084 11.0943 7.68477 11.0328 8.14061C10.9621 8.44269 10.8875 8.35415 10.8365 8.23436C10.7108 8.07811 10.699 6.84373 10.5459 7.04686Z" fill="white"/>
<path fill-rule="evenodd" clip-rule="evenodd" d="M11.2843 9.06778C11.3982 8.96361 11.3471 8.89069 11.512 9.10944C11.7249 9.60903 11.8485 10.1667 11.8732 10.7397C11.8654 10.8751 11.9361 10.9584 11.9714 10.9272C11.9871 10.6147 12.5643 10.1772 13.0943 10.1147C13.1728 10.0886 13.1336 9.88549 13.1454 9.78132C13.1139 9.39069 13.3103 9.03653 13.5851 9.01049C13.962 9.0834 14.0877 9.34903 14.0955 9.75007C14.0523 10.5313 13.4398 10.6615 13.0982 10.724C13.0472 10.7501 13.0236 10.7813 13.0982 10.8178L14.5353 10.8282L14.6099 10.8803C14.6177 10.9324 14.5863 10.8907 14.5313 11.0157C14.4523 11.1999 14.4028 11.4038 14.3861 11.6147C13.9581 11.8022 13.5144 11.8751 13.0668 11.9532C12.9098 12.0574 12.8313 12.198 12.8627 12.3542C12.9176 12.5261 13.2631 12.7032 13.2631 12.7084C13.3299 12.7605 13.4045 12.8907 13.2435 13.1563C12.5446 13.1147 11.9989 12.7188 11.8104 12.1615C11.7555 12.1042 11.6926 12.1615 11.6534 12.2344C11.3785 12.7032 11.1115 13.1199 10.6443 13.349C10.3695 13.4428 10.0829 13.2917 9.94936 13.0522C9.85906 12.9115 9.86299 12.7605 9.83157 12.7292C9.67845 12.8178 8.38278 13.5469 8.54768 13.2032C8.86178 12.7605 9.41146 12.4272 9.89047 11.9897C9.92581 11.8386 9.98863 11.3386 10.1771 11.1772C10.1889 11.1772 10.1496 11.4688 10.1535 11.5938C10.1535 11.698 10.1457 11.7344 10.1614 11.7084C10.1967 11.6824 10.7778 11.073 10.8289 10.8855C10.8838 10.7813 10.8406 10.5105 10.8406 10.5001C10.7307 10.1251 10.5776 10.0938 10.5226 9.90632C10.4716 9.66153 10.4951 9.38028 10.6011 9.29694C10.6954 9.18757 10.8053 9.19799 10.9113 9.32299C11.0291 9.46361 11.1312 9.73965 11.1626 9.94278C11.143 10.0209 11.0055 9.89069 10.9663 9.92715C11.0418 10.0424 11.0921 10.1829 11.1115 10.3334C11.1901 10.7605 11.1665 10.9272 11.088 11.2032C10.8289 11.9272 10.499 12.1407 10.2085 12.4115C10.2006 12.4115 10.1967 12.5938 10.3027 12.6928C10.342 12.7449 10.4951 12.7709 10.6718 12.6928C11.0493 12.4147 11.3545 11.9917 11.5474 11.4792C11.5807 11.0893 11.5485 10.6944 11.4531 10.323C11.3393 9.97403 11.2058 9.47924 11.2058 9.46882C11.2018 9.25007 11.2136 9.17715 11.2843 9.06778ZM7.52292 7.05736C7.68783 7.16153 8.00193 7.11465 7.98622 6.76049L7.97837 6.59903C7.94696 6.49486 7.85273 6.5209 7.8331 6.62507C7.82525 6.66153 7.84488 6.71882 7.82132 6.73444C7.80561 6.75528 7.75457 6.74486 7.75457 6.6459C7.75457 6.61465 7.73887 6.5834 7.72709 6.56257C7.71924 6.55215 7.71138 6.55215 7.69175 6.55215C7.66819 6.55215 7.66819 6.55736 7.65642 6.5834C7.65249 6.60944 7.64464 6.63549 7.64464 6.66674C7.64464 6.70319 7.62893 6.71361 7.61323 6.71882C7.58967 6.71882 7.59359 6.71882 7.57396 6.7084C7.56611 6.69278 7.55433 6.68757 7.55433 6.65632L7.54255 6.57299C7.5347 6.55736 7.519 6.54694 7.50329 6.54174C7.41299 6.54174 7.40513 6.68236 7.41299 6.73444C7.40513 6.74486 7.40121 6.98965 7.52292 7.05736Z" fill="white"/>
<path fill-rule="evenodd" clip-rule="evenodd" d="M12.3716 9.77596C12.5365 9.88012 12.933 9.82283 12.8349 9.48429L12.827 9.31762C12.7917 9.21346 12.7014 9.2395 12.6818 9.34887C12.6739 9.38012 12.6935 9.43741 12.666 9.45304C12.6543 9.47387 12.5993 9.46346 12.6032 9.36971C12.6032 9.33846 12.5875 9.302 12.5757 9.28116C12.564 9.27596 12.56 9.27075 12.5365 9.27075C12.5168 9.27075 12.5168 9.28116 12.5051 9.30721C12.4972 9.33325 12.4933 9.35929 12.4933 9.39054C12.4894 9.42179 12.4776 9.43221 12.458 9.44262C12.4383 9.44262 12.4423 9.44262 12.4265 9.427C12.4148 9.41137 12.403 9.40617 12.403 9.38012L12.3912 9.29679C12.3834 9.28116 12.3677 9.27075 12.3519 9.26554C12.2616 9.26554 12.2538 9.40096 12.2577 9.45304C12.2538 9.46346 12.2499 9.71346 12.3755 9.77596H12.3716ZM15.1985 8.65096C15.3634 8.75512 15.6736 8.70825 15.6618 8.35929L15.6539 8.19262C15.6186 8.08846 15.5283 8.1145 15.5087 8.21867C15.5008 8.25512 15.5205 8.31241 15.493 8.33325C15.4812 8.34887 15.4262 8.33846 15.4302 8.2395C15.4302 8.20825 15.4144 8.177 15.4027 8.15617C15.3909 8.14575 15.387 8.14575 15.3634 8.14575C15.3438 8.14575 15.3438 8.15617 15.332 8.18221L15.3202 8.26033C15.3163 8.29679 15.3045 8.31242 15.2849 8.31242C15.2652 8.31242 15.2692 8.31241 15.2535 8.302C15.2417 8.28637 15.2299 8.28116 15.2299 8.25512C15.2299 8.22908 15.226 8.18742 15.2181 8.16658C15.2103 8.15096 15.1946 8.14575 15.1789 8.14054C15.0886 8.14054 15.0807 8.27596 15.0846 8.32804C15.0807 8.33846 15.0768 8.58325 15.2024 8.65096H15.1985ZM16.663 11.4791C16.3764 11.9114 16.502 12.6249 16.5688 12.7812C16.663 13.0312 16.7376 13.1926 16.9221 13.3176C17.091 13.4791 17.2245 13.3801 17.2951 13.2655C17.464 13.0312 17.4679 12.4322 17.5464 12.3176C17.6014 12.0989 17.7427 12.1353 17.8095 12.2343C17.8719 12.3519 17.9556 12.4468 18.0529 12.5103C18.21 12.6926 18.3984 12.7291 18.5869 12.5624C18.7125 12.4635 18.795 12.3437 18.8696 12.0989C18.9481 11.8072 18.9088 10.453 18.8892 9.65096L18.7243 8.53117C18.7243 8.52075 18.7047 7.99992 18.685 7.88012C18.685 7.82804 18.6733 7.81242 18.7125 7.81762C18.7557 7.86971 18.7596 7.86971 18.791 7.88533C18.8303 7.89575 18.8696 7.79679 18.8421 7.71346L18.4495 6.74471C18.4181 6.70304 18.3749 6.66137 18.3238 6.75512C18.2937 6.79129 18.2697 6.83553 18.2535 6.88491C18.2372 6.9343 18.2291 6.9877 18.2296 7.04158C18.2414 7.27075 18.2689 7.50512 18.2806 7.73429L18.4377 8.91137C18.4887 9.74471 18.5005 10.4322 18.5515 11.2707C18.5437 11.6249 18.4612 11.9322 18.3827 11.9791C18.3827 11.9791 18.2649 12.0676 18.1864 11.9687C18.1275 11.9374 17.8959 11.453 17.8959 11.453C17.7781 11.3124 17.6995 11.3489 17.6171 11.453C17.3815 11.7551 17.2794 12.3072 17.1185 12.6926C17.0792 12.7812 16.9614 12.8489 16.8358 12.6874C16.5138 12.0989 16.7023 11.2655 16.663 11.4791ZM15.2731 6.59887C15.4223 6.677 15.5244 7.07804 15.493 7.27596C15.4616 7.51033 15.383 7.77075 15.3281 7.7395C15.2652 7.70825 15.3673 7.49991 15.3084 7.28116C15.277 7.13533 15.0729 6.87492 15.0964 6.802C15.0572 6.64054 15.1828 6.56762 15.2731 6.59366V6.59887Z" fill="white"/>
<path fill-rule="evenodd" clip-rule="evenodd" d="M17.1423 11.7189C17.1697 11.2397 17.1187 10.948 17.1108 10.6668C17.103 10.3855 16.8713 8.23968 16.8242 8.03135C16.7653 7.6251 17.048 7.97927 17.0166 7.73968C16.9185 7.44802 16.679 7.01573 16.6044 6.76052C16.5572 6.65635 16.5769 6.55218 16.4748 6.73448C16.3869 7.05409 16.356 7.39636 16.3845 7.73448C16.6279 9.41677 16.8753 10.8126 16.836 12.4116C16.9538 12.4116 17.0834 12.0626 17.1423 11.7189ZM19.6708 7.27614C19.8082 7.36468 19.8867 7.86468 19.871 8.00531C19.8435 8.26573 19.7729 8.54698 19.7218 8.51052C19.6629 8.47927 19.7336 8.1251 19.7061 8.01573C19.6747 7.85948 19.4902 7.57823 19.5098 7.49489C19.4705 7.31781 19.5883 7.24489 19.6708 7.27614ZM9.63128 10.8126C9.76085 10.8803 9.83937 11.2449 9.8276 11.3491C9.79619 11.5418 9.72944 11.7501 9.6784 11.7189C9.62736 11.698 9.69018 11.4376 9.66662 11.3543C9.65484 11.1616 9.47423 11.0574 9.47816 10.9741C9.44675 10.8178 9.55668 10.7918 9.63521 10.8126H9.63128Z" fill="white"/>
<path fill-rule="evenodd" clip-rule="evenodd" d="M12.757 11.3645C12.9219 11.3749 13.0044 11.552 12.8513 11.6249C12.6942 11.6926 12.5489 11.7499 12.545 12.0416C12.6039 12.4583 12.4665 12.3124 12.3879 12.2603C12.2937 12.1666 12.0267 11.9478 11.9875 11.4791C11.9835 11.3697 12.0503 11.2708 12.1563 11.2708C12.3134 11.328 12.5489 11.3333 12.757 11.3645Z" fill="#1B9D00"/>
<path fill-rule="evenodd" clip-rule="evenodd" d="M6.17978 6.47904C6.36824 6.55196 6.38002 6.92696 6.36824 7.03633C6.34075 7.23425 6.27401 7.44779 6.22689 7.42175C6.17192 7.39571 6.22689 7.12488 6.19941 7.04154C6.17192 6.92696 6.01095 6.70821 6.02665 6.64571C5.99131 6.5155 6.10518 6.453 6.17978 6.47904ZM9.94508 8.22904C9.79588 8.33321 9.74091 8.64571 9.83122 8.83321C9.9176 8.98946 10.0511 8.93217 10.0668 8.93217C10.2121 8.953 10.2984 8.57279 10.2984 8.57279C10.2984 8.57279 10.3024 8.46863 10.1335 8.67175C10.0589 8.68738 10.055 8.65092 10.0354 8.59883C10.0174 8.49968 10.0243 8.39545 10.055 8.30196C10.0825 8.20821 10.0275 8.16654 9.94508 8.22904ZM11.0444 6.33321C10.9659 6.40092 10.8206 6.60404 10.8167 6.83321C10.8128 6.96342 10.7932 6.96342 10.856 7.04154C10.907 7.13529 10.9502 7.13008 11.0444 7.06238C11.0679 7.04277 11.0881 7.0169 11.1036 6.98642C11.1192 6.95593 11.1298 6.9215 11.1347 6.88529C11.1583 6.73946 11.017 6.95821 11.0013 6.79154C10.9698 6.63529 11.0601 6.57279 11.1465 6.42696C11.1465 6.32279 11.1465 6.25508 11.0405 6.33321H11.0444ZM11.9239 6.54154C11.8893 6.7312 11.8683 6.92476 11.8611 7.11967C11.8375 7.2655 11.9789 7.328 12.0378 7.1405C12.132 6.80196 12.132 6.65613 12.1399 6.5155C12.1124 6.29154 11.9985 6.29675 11.9239 6.54154ZM17.4992 10.3072C17.515 10.2811 18.2845 9.55717 18.2845 9.55717C18.363 9.52071 18.3434 9.93217 18.3081 9.92696C18.0694 10.2321 17.7949 10.4836 17.4953 10.6718C17.4561 10.7082 17.4207 10.3957 17.4953 10.3072H17.4992ZM18.1942 10.2968C18.3316 10.3853 18.3866 10.9113 18.3709 11.052C18.3709 11.3332 18.2413 11.552 18.1863 11.5207C18.1314 11.4843 18.1942 11.1718 18.1667 11.0624C18.1353 10.9061 18.0214 10.6197 18.0411 10.5363C18.0018 10.3593 18.1117 10.2655 18.1981 10.2968H18.1942ZM13.6397 12.5572C13.7034 12.4586 13.7774 12.3726 13.8596 12.302C13.9381 12.2499 14.0088 12.3436 14.0049 12.3384C14.0166 12.4426 13.9577 12.5311 13.9774 12.6665C13.9931 12.7186 14.0049 12.7811 14.0795 12.7603C14.2012 12.6301 14.315 12.6197 14.4328 12.6145C14.531 12.6197 14.5349 12.8332 14.4721 12.8332C14.2483 12.8957 14.1501 12.979 13.9892 13.0572C13.9106 13.1197 13.8478 13.0415 13.8478 13.0363C13.8478 13.0311 13.8046 12.979 13.8321 12.8436C13.84 12.7395 13.8085 12.677 13.7379 12.6874C13.6908 12.729 13.6436 12.7499 13.6201 12.6718C13.6083 12.6197 13.6044 12.5884 13.6397 12.5572ZM19.003 12.8384C19.0344 12.8905 19.058 12.9426 18.9991 13.0363L18.8538 13.203C18.8303 13.2551 18.8146 13.3488 18.8931 13.3749C19.0344 13.427 19.3642 13.1405 19.3642 13.1353C19.4192 13.0832 19.4035 12.979 19.3956 12.979C19.3642 12.9322 19.2936 12.9634 19.2464 12.953C19.2229 12.953 19.1483 12.9426 19.1836 12.8488C19.21 12.8028 19.2312 12.7519 19.2464 12.6978C19.2661 12.6353 19.2464 12.5936 19.1679 12.5572C19.0855 12.5363 19.0501 12.5468 18.9598 12.5572C18.9127 12.5676 18.897 12.5988 18.8852 12.677C18.8892 12.7968 18.9441 12.7915 19.003 12.8332V12.8384Z" fill="white"/>
<path fill-rule="evenodd" clip-rule="evenodd" d="M13.6677 9.88023C13.6481 9.93231 13.5774 9.93231 13.5107 9.88023C13.4439 9.82815 13.4047 9.74481 13.4282 9.69794C13.4518 9.65106 13.5185 9.65106 13.5853 9.69794C13.652 9.74481 13.6874 9.83336 13.6677 9.88023ZM10.1733 7.08857C10.1341 7.10419 10.0791 7.05732 10.0555 6.9844C10.032 6.91148 10.0438 6.84898 10.083 6.83336C10.1223 6.81773 10.1733 6.86981 10.2008 6.93752C10.2283 7.00523 10.2126 7.07815 10.1694 7.09377L10.1733 7.08857Z" fill="#259F00"/>
<path fill-rule="evenodd" clip-rule="evenodd" d="M17.0872 19.5312C17.4562 19.5521 17.8018 19.5312 18.1669 19.5573C18.2336 19.6354 18.1865 19.8177 18.1433 19.8073L17.8371 19.7917C17.8332 19.6354 17.5348 19.6615 17.5426 19.7969C17.3816 19.8229 17.2364 19.7917 17.0715 19.7812C17.0243 19.7031 17.0322 19.5625 17.0872 19.5312Z" fill="#209000"/>
</g>
<defs>
<clipPath id="clip0_4687_1900">
<rect width="28" height="20" fill="white"/>
</clipPath>
</defs>
</svg>
