<svg width="50" height="50" viewBox="0 0 50 50" fill="none" xmlns="http://www.w3.org/2000/svg">
<path d="M10.2678 6.24998C9.20224 6.24998 8.18028 6.67329 7.42679 7.42679C6.67329 8.18028 6.24998 9.20224 6.24998 10.2678V15.625C6.24998 15.9802 6.10888 16.3208 5.85771 16.572C5.60655 16.8232 5.2659 16.9643 4.9107 16.9643C4.5555 16.9643 4.21484 16.8232 3.96368 16.572C3.71251 16.3208 3.57141 15.9802 3.57141 15.625V10.2678C3.57141 8.49184 4.27693 6.78857 5.53275 5.53275C6.78857 4.27693 8.49184 3.57141 10.2678 3.57141H15.625C15.9802 3.57141 16.3208 3.71251 16.572 3.96368C16.8232 4.21484 16.9643 4.5555 16.9643 4.9107C16.9643 5.2659 16.8232 5.60655 16.572 5.85771C16.3208 6.10888 15.9802 6.24998 15.625 6.24998H10.2678ZM10.2678 43.75C9.20224 43.75 8.18028 43.3267 7.42679 42.5732C6.67329 41.8197 6.24998 40.7977 6.24998 39.7321V34.375C6.24998 34.0198 6.10888 33.6791 5.85771 33.428C5.60655 33.1768 5.2659 33.0357 4.9107 33.0357C4.5555 33.0357 4.21484 33.1768 3.96368 33.428C3.71251 33.6791 3.57141 34.0198 3.57141 34.375V39.7321C3.57141 41.5081 4.27693 43.2114 5.53275 44.4672C6.78857 45.723 8.49184 46.4286 10.2678 46.4286H15.625C15.9802 46.4286 16.3208 46.2874 16.572 46.0363C16.8232 45.7851 16.9643 45.4445 16.9643 45.0893C16.9643 44.7341 16.8232 44.3934 16.572 44.1422C16.3208 43.8911 15.9802 43.75 15.625 43.75H10.2678ZM43.75 10.2678C43.75 9.20224 43.3267 8.18028 42.5732 7.42679C41.8197 6.67329 40.7977 6.24998 39.7321 6.24998H34.375C34.0198 6.24998 33.6791 6.10888 33.428 5.85771C33.1768 5.60655 33.0357 5.2659 33.0357 4.9107C33.0357 4.5555 33.1768 4.21484 33.428 3.96368C33.6791 3.71251 34.0198 3.57141 34.375 3.57141H39.7321C41.5081 3.57141 43.2114 4.27693 44.4672 5.53275C45.723 6.78857 46.4286 8.49184 46.4286 10.2678V15.625C46.4286 15.9802 46.2874 16.3208 46.0363 16.572C45.7851 16.8232 45.4445 16.9643 45.0893 16.9643C44.7341 16.9643 44.3934 16.8232 44.1422 16.572C43.8911 16.3208 43.75 15.9802 43.75 15.625V10.2678ZM39.7321 43.75C40.7977 43.75 41.8197 43.3267 42.5732 42.5732C43.3267 41.8197 43.75 40.7977 43.75 39.7321V34.375C43.75 34.0198 43.8911 33.6791 44.1422 33.428C44.3934 33.1768 44.7341 33.0357 45.0893 33.0357C45.4445 33.0357 45.7851 33.1768 46.0363 33.428C46.2874 33.6791 46.4286 34.0198 46.4286 34.375V39.7321C46.4286 41.5081 45.723 43.2114 44.4672 44.4672C43.2114 45.723 41.5081 46.4286 39.7321 46.4286H34.375C34.0198 46.4286 33.6791 46.2874 33.428 46.0363C33.1768 45.7851 33.0357 45.4445 33.0357 45.0893C33.0357 44.7341 33.1768 44.3934 33.428 44.1422C33.6791 43.8911 34.0198 43.75 34.375 43.75H39.7321ZM29.1661 25.1607C29.1661 27.4928 27.3018 29.3821 25 29.3821C22.6982 29.3821 20.8339 27.4928 20.8339 25.1625C20.8339 22.8321 22.6964 20.9411 25 20.9411C27.3036 20.9411 29.1661 22.8303 29.1661 25.1607ZM19.3268 14.2518C19.8553 13.1803 20.9375 12.5018 22.1214 12.5018H27.8786C29.0625 12.5018 30.1464 13.1803 30.6732 14.2518L31.8928 16.7232H33.3339C35.6339 16.7232 37.5 18.6125 37.5 20.9428V31.4964C37.5 33.8232 35.6339 35.7143 33.3339 35.7143H16.6661C14.3661 35.7143 12.5 33.825 12.5 31.4928V20.9411C12.5 18.6107 14.3661 16.7214 16.6661 16.7214H18.1053L19.3268 14.2518ZM31.25 25.1625C31.25 21.6678 28.4518 18.8339 25 18.8339C21.5482 18.8339 18.75 21.6678 18.75 25.1643C18.75 28.6607 21.5482 31.4946 25 31.4946C28.4518 31.4946 31.25 28.6607 31.25 25.1643" fill="#66BAD0"/>
</svg>
