<svg width="28" height="28" viewBox="0 0 28 28" fill="none" xmlns="http://www.w3.org/2000/svg">
<path d="M25.3283 23.6716L21 19.3782C22.6801 17.2834 23.4938 14.6244 23.2736 11.9481C23.0535 9.27174 21.8163 6.78147 19.8165 4.98931C17.8166 3.19715 15.2061 2.23932 12.5218 2.31277C9.83739 2.38622 7.28319 3.48538 5.38434 5.38422C3.4855 7.28306 2.38635 9.83727 2.31289 12.5216C2.23944 15.206 3.19727 17.8165 4.98943 19.8163C6.78159 21.8162 9.27186 23.0534 11.9482 23.2735C14.6245 23.4936 17.2835 22.68 19.3783 20.9999L23.6717 25.2932C23.7801 25.4026 23.9092 25.4894 24.0513 25.5486C24.1935 25.6078 24.346 25.6383 24.5 25.6383C24.654 25.6383 24.8065 25.6078 24.9487 25.5486C25.0909 25.4894 25.2199 25.4026 25.3283 25.2932C25.5386 25.0757 25.6562 24.785 25.6562 24.4824C25.6562 24.1798 25.5386 23.8891 25.3283 23.6716ZM12.8333 20.9999C11.2181 20.9999 9.63919 20.5209 8.29619 19.6236C6.95319 18.7262 5.90644 17.4507 5.28833 15.9585C4.67021 14.4662 4.50848 12.8242 4.8236 11.24C5.13871 9.65581 5.91651 8.20064 7.05864 7.05852C8.20077 5.91639 9.65593 5.13859 11.2401 4.82348C12.8243 4.50836 14.4663 4.67009 15.9586 5.28821C17.4509 5.90632 18.7263 6.95306 19.6237 8.29606C20.521 9.63907 21 11.218 21 12.8332C21 14.9992 20.1396 17.0764 18.608 18.6079C17.0765 20.1395 14.9993 20.9999 12.8333 20.9999Z" fill="white"/>
</svg>
