<svg width="21" height="20" viewBox="0 0 21 20" fill="none" xmlns="http://www.w3.org/2000/svg">
<path d="M18.6562 10.66C18.4959 10.4775 18.4075 10.2429 18.4075 10C18.4075 9.75711 18.4959 9.52251 18.6562 9.34002L19.9362 7.90002C20.0773 7.74269 20.1649 7.54472 20.1864 7.33452C20.208 7.12433 20.1624 6.9127 20.0562 6.73002L18.0562 3.27002C17.9511 3.08754 17.7911 2.94289 17.599 2.8567C17.4069 2.77051 17.1924 2.74718 16.9862 2.79002L15.1062 3.17002C14.867 3.21945 14.618 3.17961 14.4061 3.05802C14.1943 2.93643 14.0342 2.7415 13.9562 2.51002L13.3462 0.680017C13.2792 0.481396 13.1513 0.308882 12.9809 0.186859C12.8104 0.0648361 12.6059 -0.000523977 12.3962 1.71846e-05H8.39624C8.17818 -0.0113649 7.96238 0.0489435 7.78181 0.171731C7.60124 0.294519 7.46582 0.473036 7.39624 0.680017L6.83624 2.51002C6.75824 2.7415 6.59822 2.93643 6.38636 3.05802C6.1745 3.17961 5.92546 3.21945 5.68624 3.17002L3.75624 2.79002C3.56079 2.7624 3.36154 2.79324 3.18359 2.87866C3.00564 2.96407 2.85695 3.10025 2.75624 3.27002L0.756244 6.73002C0.647404 6.91067 0.598466 7.1211 0.616427 7.33124C0.634387 7.54138 0.718326 7.74046 0.856244 7.90002L2.12624 9.34002C2.28656 9.52251 2.37498 9.75711 2.37498 10C2.37498 10.2429 2.28656 10.4775 2.12624 10.66L0.856244 12.1C0.718326 12.2596 0.634387 12.4587 0.616427 12.6688C0.598466 12.8789 0.647404 13.0894 0.756244 13.27L2.75624 16.73C2.86134 16.9125 3.02136 17.0571 3.2135 17.1433C3.40563 17.2295 3.62007 17.2529 3.82624 17.21L5.70624 16.83C5.94546 16.7806 6.1945 16.8204 6.40636 16.942C6.61822 17.0636 6.77825 17.2585 6.85624 17.49L7.46624 19.32C7.53582 19.527 7.67124 19.7055 7.85181 19.8283C8.03238 19.9511 8.24818 20.0114 8.46624 20H12.4662C12.6759 20.0006 12.8804 19.9352 13.0509 19.8132C13.2213 19.6912 13.3492 19.5186 13.4162 19.32L14.0262 17.49C14.1042 17.2585 14.2643 17.0636 14.4761 16.942C14.688 16.8204 14.937 16.7806 15.1762 16.83L17.0562 17.21C17.2624 17.2529 17.4769 17.2295 17.669 17.1433C17.8611 17.0571 18.0211 16.9125 18.1262 16.73L20.1262 13.27C20.2324 13.0873 20.278 12.8757 20.2564 12.6655C20.2349 12.4553 20.1473 12.2573 20.0062 12.1L18.6562 10.66ZM17.1662 12L17.9662 12.9L16.6862 15.12L15.5062 14.88C14.786 14.7328 14.0368 14.8551 13.4008 15.2238C12.7649 15.5925 12.2864 16.1819 12.0562 16.88L11.6762 18H9.11624L8.75624 16.86C8.5261 16.1619 8.04763 15.5725 7.41165 15.2038C6.77567 14.8351 6.02646 14.7128 5.30624 14.86L4.12624 15.1L2.82624 12.89L3.62624 11.99C4.1182 11.44 4.39018 10.7279 4.39018 9.99002C4.39018 9.25208 4.1182 8.54004 3.62624 7.99002L2.82624 7.09002L4.10624 4.89002L5.28624 5.13002C6.00646 5.27724 6.75567 5.1549 7.39165 4.78622C8.02762 4.41753 8.5061 3.82818 8.73624 3.13002L9.11624 2.00002H11.6762L12.0562 3.14002C12.2864 3.83818 12.7649 4.42753 13.4008 4.79622C14.0368 5.1649 14.786 5.28724 15.5062 5.14002L16.6862 4.90002L17.9662 7.12002L17.1662 8.02002C16.6798 8.56878 16.4112 9.2767 16.4112 10.01C16.4112 10.7433 16.6798 11.4513 17.1662 12ZM10.3962 6.00002C9.60512 6.00002 8.83176 6.23461 8.17396 6.67414C7.51617 7.11366 7.00348 7.73838 6.70073 8.46928C6.39797 9.20019 6.31876 10.0045 6.4731 10.7804C6.62744 11.5563 7.00841 12.269 7.56782 12.8284C8.12723 13.3879 8.83996 13.7688 9.61588 13.9232C10.3918 14.0775 11.1961 13.9983 11.927 13.6955C12.6579 13.3928 13.2826 12.8801 13.7221 12.2223C14.1616 11.5645 14.3962 10.7911 14.3962 10C14.3962 8.93915 13.9748 7.92174 13.2247 7.17159C12.4745 6.42144 11.4571 6.00002 10.3962 6.00002ZM10.3962 12C10.0007 12 9.614 11.8827 9.2851 11.663C8.9562 11.4432 8.69986 11.1308 8.54848 10.7654C8.39711 10.3999 8.3575 9.9978 8.43467 9.60984C8.51184 9.22187 8.70232 8.86551 8.98203 8.5858C9.26173 8.3061 9.6181 8.11562 10.0061 8.03845C10.394 7.96128 10.7962 8.00088 11.1616 8.15226C11.5271 8.30363 11.8394 8.55998 12.0592 8.88888C12.2789 9.21778 12.3962 9.60445 12.3962 10C12.3962 10.5304 12.1855 11.0392 11.8105 11.4142C11.4354 11.7893 10.9267 12 10.3962 12Z" fill="#66BAD0"/>
</svg>
