<svg width="19" height="20" viewBox="0 0 19 20" fill="none" xmlns="http://www.w3.org/2000/svg">
<path d="M15.437 20C14.6037 20 13.8953 19.7083 13.312 19.125C12.7287 18.5417 12.437 17.8333 12.437 17C12.437 16.9 12.462 16.6667 12.512 16.3L5.48701 12.2C5.22035 12.45 4.91201 12.646 4.56201 12.788C4.21201 12.93 3.83701 13.0007 3.43701 13C2.60368 13 1.89534 12.7083 1.31201 12.125C0.728678 11.5417 0.437012 10.8333 0.437012 10C0.437012 9.16667 0.728678 8.45833 1.31201 7.875C1.89534 7.29167 2.60368 7 3.43701 7C3.83701 7 4.21201 7.071 4.56201 7.213C4.91201 7.355 5.22035 7.55067 5.48701 7.8L12.512 3.7C12.4787 3.58333 12.458 3.471 12.45 3.363C12.442 3.255 12.4377 3.134 12.437 3C12.437 2.16667 12.7287 1.45833 13.312 0.875C13.8953 0.291667 14.6037 0 15.437 0C16.2703 0 16.9787 0.291667 17.562 0.875C18.1453 1.45833 18.437 2.16667 18.437 3C18.437 3.83333 18.1453 4.54167 17.562 5.125C16.9787 5.70833 16.2703 6 15.437 6C15.037 6 14.662 5.929 14.312 5.787C13.962 5.645 13.6537 5.44933 13.387 5.2L6.36201 9.3C6.39535 9.41667 6.41635 9.52933 6.42501 9.638C6.43368 9.74667 6.43768 9.86733 6.43701 10C6.43635 10.1327 6.43234 10.2537 6.42501 10.363C6.41768 10.4723 6.39668 10.5847 6.36201 10.7L13.387 14.8C13.6537 14.55 13.962 14.3543 14.312 14.213C14.662 14.0717 15.037 14.0007 15.437 14C16.2703 14 16.9787 14.2917 17.562 14.875C18.1453 15.4583 18.437 16.1667 18.437 17C18.437 17.8333 18.1453 18.5417 17.562 19.125C16.9787 19.7083 16.2703 20 15.437 20Z" fill="#66BAD0"/>
</svg>
