<svg width="28" height="20" viewBox="0 0 28 20" fill="none" xmlns="http://www.w3.org/2000/svg">
<g clip-path="url(#clip0_4608_2294)">
<path fill-rule="evenodd" clip-rule="evenodd" d="M0 0V20H28V0H0Z" fill="#2E42A5"/>
<mask id="mask0_4608_2294" style="mask-type:luminance" maskUnits="userSpaceOnUse" x="0" y="0" width="28" height="20">
<path fill-rule="evenodd" clip-rule="evenodd" d="M0 0V20H28V0H0Z" fill="white"/>
</mask>
<g mask="url(#mask0_4608_2294)">
<path d="M-3.11768 18.5708L3.04407 21.0533L28.1391 2.69829L31.3897 -0.990047L24.8009 -1.81921L14.5652 6.08995L6.3262 11.42L-3.11768 18.5708Z" fill="white"/>
<path d="M-2.2749 20.31L0.865472 21.75L30.2226 -1.33252H25.8152L-2.2749 20.31Z" fill="#F50100"/>
<path d="M31.1177 18.5708L24.956 21.0533L-0.139024 2.69829L-3.38965 -0.990047L3.1991 -1.81921L13.4349 6.08995L21.6739 11.42L31.1177 18.5708Z" fill="white"/>
<path d="M30.9075 19.8191L27.768 21.2591L15.2677 11.3758L11.5612 10.2725L-3.70312 -0.977539H0.705125L15.9599 10.0058L20.012 11.3291L30.9075 19.8191Z" fill="#F50100"/>
<path fill-rule="evenodd" clip-rule="evenodd" d="M17.3057 -1.66675H10.6942V6.66659H-1.72559V13.3333H10.6942V21.6666H17.3057V13.3333H29.7744V6.66659H17.3057V-1.66675Z" fill="#F50100"/>
<mask id="mask1_4608_2294" style="mask-type:luminance" maskUnits="userSpaceOnUse" x="-2" y="-2" width="32" height="24">
<path fill-rule="evenodd" clip-rule="evenodd" d="M17.3057 -1.66675H10.6942V6.66659H-1.72559V13.3333H10.6942V21.6666H17.3057V13.3333H29.7744V6.66659H17.3057V-1.66675Z" fill="white"/>
</mask>
<g mask="url(#mask1_4608_2294)">
<path d="M10.6942 -1.66671V-3.33337H8.94416V-1.66671H10.6942ZM17.3057 -1.66671H19.0557V-3.33337H17.3057V-1.66671ZM10.6942 6.66663V8.33329H12.4442V6.66663H10.6942ZM-1.72559 6.66663V4.99996H-3.47559V6.66663H-1.72559ZM-1.72559 13.3333H-3.47559V15H-1.72559V13.3333ZM10.6942 13.3333H12.4442V11.6666H10.6942V13.3333ZM10.6942 21.6666H8.94416V23.3333H10.6942V21.6666ZM17.3057 21.6666V23.3333H19.0557V21.6666H17.3057ZM17.3057 13.3333V11.6666H15.5557V13.3333H17.3057ZM29.7744 13.3333V15H31.5244V13.3333H29.7744ZM29.7744 6.66663H31.5244V4.99996H29.7744V6.66663ZM17.3057 6.66663H15.5557V8.33329H17.3057V6.66663ZM10.6942 -4.07696e-05H17.3057V-3.33337H10.6942V-4.07696e-05ZM12.4442 6.66663V-1.66671H8.94416V6.66663H12.4442ZM-1.72559 8.33329H10.6942V4.99996H-1.72559V8.33329ZM0.0244141 13.3333V6.66663H-3.47559V13.3333H0.0244141ZM10.6942 11.6666H-1.72559V15H10.6942V11.6666ZM12.4442 21.6666V13.3333H8.94416V21.6666H12.4442ZM17.3057 20H10.6942V23.3333H17.3057V20ZM15.5557 13.3333V21.6666H19.0557V13.3333H15.5557ZM29.7744 11.6666H17.3057V15H29.7744V11.6666ZM28.0244 6.66663V13.3333H31.5244V6.66663H28.0244ZM17.3057 8.33329H29.7744V4.99996H17.3057V8.33329ZM15.5557 -1.66671V6.66663H19.0557V-1.66671H15.5557Z" fill="white"/>
</g>
</g>
</g>
<defs>
<clipPath id="clip0_4608_2294">
<rect width="28" height="20" fill="white"/>
</clipPath>
</defs>
</svg>
