<svg width="12" height="15" viewBox="0 0 12 15" fill="none" xmlns="http://www.w3.org/2000/svg">
<path d="M6 7C7.65685 7 9 5.65685 9 4C9 2.34315 7.65685 1 6 1C4.34315 1 3 2.34315 3 4C3 5.65685 4.34315 7 6 7Z" stroke="#66BAD0" stroke-width="2" stroke-linecap="round"/>
<path d="M11.78 12.826C11.8418 12.7934 11.8896 12.7393 11.9143 12.6739C11.939 12.6085 11.9389 12.5363 11.914 12.471C11.528 11.505 10.786 10.653 9.78096 10.033C8.69696 9.363 7.36696 9 5.99996 9C4.63296 9 3.30296 9.363 2.21896 10.033C1.21396 10.653 0.471963 11.504 0.0859626 12.471C0.0609683 12.5362 0.0606954 12.6083 0.0851954 12.6737C0.109695 12.7391 0.157275 12.7933 0.218963 12.826C1.99037 13.7987 3.97858 14.3086 5.99946 14.3086C8.02035 14.3086 10.0086 13.7987 11.78 12.826Z" fill="#66BAD0"/>
</svg>
