<svg width="21" height="20" viewBox="0 0 21 20" fill="none" xmlns="http://www.w3.org/2000/svg">
<path d="M10.437 0C9.12379 0 7.82343 0.258658 6.61018 0.761205C5.39692 1.26375 4.29453 2.00035 3.36594 2.92893C1.49058 4.8043 0.437012 7.34784 0.437012 10C0.437012 12.6522 1.49058 15.1957 3.36594 17.0711C4.29453 17.9997 5.39692 18.7362 6.61018 19.2388C7.82343 19.7413 9.12379 20 10.437 20C13.0892 20 15.6327 18.9464 17.5081 17.0711C19.3834 15.1957 20.437 12.6522 20.437 10C20.437 8.68678 20.1784 7.38642 19.6758 6.17317C19.1733 4.95991 18.4367 3.85752 17.5081 2.92893C16.5795 2.00035 15.4771 1.26375 14.2638 0.761205C13.0506 0.258658 11.7502 0 10.437 0ZM5.50701 16.28C5.93701 15.38 8.55701 14.5 10.437 14.5C12.317 14.5 14.937 15.38 15.367 16.28C13.9661 17.3955 12.2278 18.002 10.437 18C8.57701 18 6.86701 17.36 5.50701 16.28ZM16.797 14.83C15.367 13.09 11.897 12.5 10.437 12.5C8.97701 12.5 5.50701 13.09 4.07701 14.83C3.01333 13.4446 2.43683 11.7467 2.43701 10C2.43701 5.59 6.02701 2 10.437 2C14.847 2 18.437 5.59 18.437 10C18.437 11.82 17.817 13.5 16.797 14.83ZM10.437 4C8.49701 4 6.93701 5.56 6.93701 7.5C6.93701 9.44 8.49701 11 10.437 11C12.377 11 13.937 9.44 13.937 7.5C13.937 5.56 12.377 4 10.437 4ZM10.437 9C10.0392 9 9.65766 8.84196 9.37635 8.56066C9.09505 8.27936 8.93701 7.89782 8.93701 7.5C8.93701 7.10218 9.09505 6.72064 9.37635 6.43934C9.65766 6.15804 10.0392 6 10.437 6C10.8348 6 11.2164 6.15804 11.4977 6.43934C11.779 6.72064 11.937 7.10218 11.937 7.5C11.937 7.89782 11.779 8.27936 11.4977 8.56066C11.2164 8.84196 10.8348 9 10.437 9Z" fill="#66BAD0"/>
</svg>
